<?xml version="1.0" standalone="no"?>
<!DOCTYPE svg PUBLIC "-//W3C//DTD SVG 20010904//EN"
 "http://www.w3.org/TR/2001/REC-SVG-20010904/DTD/svg10.dtd">
<svg version="1.0" xmlns="http://www.w3.org/2000/svg"
 width="512.000000pt" height="512.000000pt" viewBox="0 0 512.000000 512.000000"
 preserveAspectRatio="xMidYMid meet">
<metadata>
Created by potrace 1.14, written by Peter Selinger 2001-2017
</metadata>
<g transform="translate(0.000000,512.000000) scale(0.100000,-0.100000)"
fill="#000000" stroke="none">
<path d="M0 3105 c0 -1561 3 -2015 12 -2015 9 0 9 -3 0 -12 -9 -9 -12 -144
-12 -545 l0 -533 665 0 c522 0 664 3 659 13 -6 9 -4 9 7 1 8 -7 78 -12 180
-13 140 -2 168 0 178 13 17 20 35 20 51 1 10 -12 38 -15 131 -15 71 0 120 4
124 10 4 6 -5 20 -19 31 -15 11 -23 26 -20 32 5 9 4 9 -6 0 -14 -13 -43 -6
-34 8 3 5 -3 6 -12 2 -12 -4 -15 -3 -10 5 5 8 1 10 -10 5 -13 -5 -15 -3 -9 7
5 8 4 11 -2 7 -10 -6 -60 7 -95 24 -10 5 -23 9 -29 9 -24 0 -108 43 -102 53 3
6 1 7 -5 3 -14 -8 -132 33 -132 46 0 5 -3 7 -8 4 -4 -2 -23 2 -42 10 -19 9
-36 15 -37 15 -2 0 -16 4 -32 9 -19 5 -33 4 -40 -3 -14 -14 -14 -62 0 -89 8
-15 8 -19 -1 -13 -6 4 0 -11 15 -34 15 -22 32 -41 38 -41 5 0 4 -7 -3 -15 -11
-13 -10 -14 2 -10 8 3 24 -6 37 -19 13 -14 27 -23 31 -21 4 2 7 -2 7 -10 0
-12 -3 -12 -20 0 -20 14 -51 10 -41 -6 9 -16 -5 -10 -23 9 -24 25 -26 41 -11
60 11 13 11 14 -1 7 -10 -5 -12 -4 -7 3 11 18 -9 14 -24 -3 -11 -13 -10 -15 6
-9 15 5 16 4 5 -4 -24 -17 -75 24 -70 55 3 20 -2 25 -15 14 -12 -10 -14 -8
-12 12 2 14 -2 24 -10 24 -7 0 -10 -5 -7 -11 3 -7 1 -6 -7 1 -14 13 -4 37 12
27 7 -4 8 -2 4 5 -4 6 -12 9 -17 6 -13 -9 -11 9 4 24 10 11 10 13 -1 7 -21
-12 -13 11 10 28 21 14 21 15 3 10 -18 -5 -18 -4 -3 8 9 7 24 18 34 24 25 15
12 58 -18 61 -52 4 -81 12 -99 29 -10 9 -19 14 -19 10 0 -4 -10 -2 -21 5 -15
7 -19 8 -15 0 5 -7 1 -8 -10 -4 -13 5 -16 2 -12 -9 7 -16 -17 -18 -41 -3 -11
6 -13 4 -9 -7 11 -28 -42 -12 -108 33 -23 16 -44 25 -48 22 -3 -4 -6 -1 -6 5
0 6 -10 14 -23 18 -25 7 -120 72 -125 86 -2 4 -8 8 -13 8 -9 0 -37 21 -70 52
-9 9 -21 13 -25 10 -4 -4 -4 -1 0 6 5 7 -1 15 -16 21 -13 5 -45 28 -72 50 -26
23 -53 38 -59 34 -5 -3 -7 -1 -4 4 4 6 -45 62 -109 126 -64 63 -112 117 -107
120 5 3 51 -36 103 -87 52 -50 122 -113 155 -140 33 -26 78 -65 100 -85 22
-20 63 -52 90 -71 28 -18 52 -37 55 -40 11 -14 100 -70 180 -113 84 -45 118
-50 104 -14 -3 9 -10 15 -14 12 -5 -3 -15 3 -22 13 -12 18 -133 119 -199 168
-16 11 -26 24 -22 27 3 4 1 7 -7 7 -13 0 -136 90 -286 210 -45 36 -128 99
-184 140 -55 41 -109 83 -118 94 -23 25 317 -203 377 -254 26 -22 52 -40 57
-40 6 0 27 -15 47 -34 20 -18 38 -31 40 -29 3 2 18 -10 36 -26 17 -16 31 -27
31 -25 0 3 25 -14 55 -36 30 -22 59 -40 64 -40 6 0 14 -6 18 -13 4 -6 49 -36
98 -66 50 -29 100 -63 112 -74 12 -11 30 -20 40 -21 23 -3 76 -28 85 -41 4 -5
8 -6 8 -1 0 6 7 1 16 -10 8 -10 13 -14 10 -8 -3 6 24 -4 60 -23 36 -19 70 -36
77 -37 17 -4 48 -18 152 -66 50 -23 97 -43 105 -45 22 -5 169 -63 215 -85 22
-11 54 -22 70 -26 17 -4 41 -12 55 -19 14 -7 45 -20 70 -29 25 -8 59 -21 75
-27 17 -7 33 -13 38 -14 4 -2 8 -3 10 -5 23 -19 582 -27 647 -9 48 13 251 84
285 99 11 6 117 48 235 95 118 48 261 108 318 135 56 27 102 46 102 43 0 -3 8
1 17 9 28 23 95 59 100 54 3 -3 10 0 17 5 20 18 118 79 125 79 10 0 233 149
401 269 299 212 451 313 459 305 3 -4 0 -9 -7 -11 -7 -3 -23 -15 -35 -27 -12
-12 -44 -37 -72 -56 -27 -18 -53 -38 -57 -44 -5 -7 -8 -7 -8 -1 0 6 -3 6 -8
-1 -4 -6 -74 -61 -156 -123 -82 -63 -154 -118 -160 -123 -6 -5 -38 -30 -72
-56 -34 -26 -100 -80 -148 -120 -47 -40 -91 -70 -96 -67 -6 3 -7 -1 -4 -9 3
-9 1 -16 -5 -16 -6 0 -11 -7 -11 -16 0 -10 -6 -14 -15 -11 -20 8 -28 -8 -10
-23 20 -17 19 -29 -2 -26 -10 2 -18 7 -18 12 0 18 -17 35 -31 30 -8 -3 -11 0
-7 10 3 9 12 13 21 9 12 -4 13 -3 2 10 -11 13 -16 12 -37 -12 -14 -16 -22 -21
-18 -13 4 8 -2 4 -13 -9 -11 -13 -24 -21 -31 -17 -6 4 -11 3 -11 -1 0 -5 -10
-14 -21 -22 -18 -10 -23 -10 -30 0 -6 10 -10 10 -23 0 -25 -21 -19 -46 21 -80
20 -17 30 -31 22 -31 -11 0 -11 -2 1 -10 13 -9 13 -11 0 -19 -8 -5 -17 -8 -21
-5 -5 2 -6 -4 -4 -16 2 -11 0 -22 -5 -25 -4 -3 -6 -15 -2 -27 3 -11 1 -19 -4
-16 -12 6 -39 -23 -39 -42 0 -8 -19 -27 -42 -41 -35 -20 -41 -28 -30 -39 10
-10 9 -11 -2 -5 -9 5 -12 4 -7 -3 5 -9 187 -12 702 -12 l694 0 0 2560 0 2560
-1272 0 c-912 0 -1269 -3 -1261 -11 6 -6 39 -14 74 -19 90 -11 149 -29 156
-46 9 -25 -6 -29 -40 -9 -28 17 -53 19 -219 19 -178 0 -189 -1 -217 -22 -37
-27 -41 -27 -41 -3 0 24 62 50 147 60 35 4 69 13 75 19 9 9 -284 12 -1255 12
l-1267 0 0 -2015z m2584 1889 c3 -9 6 -25 6 -35 0 -16 5 -19 20 -14 27 9 25
-7 -6 -44 -14 -17 -22 -32 -17 -32 4 -1 15 -2 23 -3 12 -1 16 -23 18 -121 1
-66 7 -124 12 -129 13 -13 40 -16 40 -5 0 6 5 7 10 4 6 -3 10 -2 10 2 0 5 11
9 25 9 14 0 25 -3 25 -6 0 -3 16 -6 34 -6 26 0 32 3 25 12 -6 7 -19 11 -30 9
-21 -4 -27 20 -6 28 13 5 64 3 87 -4 18 -5 21 32 8 71 l-9 25 24 -23 c23 -22
26 -22 35 -7 7 13 10 5 15 -36 9 -75 21 -79 46 -16 27 67 55 94 100 99 39 3
49 19 26 41 -19 19 -10 25 30 22 17 -2 37 -3 46 -4 9 -1 19 -8 23 -16 3 -8 2
-14 -2 -13 -4 1 -20 -4 -35 -10 -16 -7 -33 -12 -38 -12 -12 0 -12 -17 0 -24
16 -10 22 -57 10 -72 -10 -13 -14 -12 -31 3 -14 12 -21 14 -30 5 -13 -13 -18
-62 -5 -62 4 0 6 -4 3 -9 -3 -5 12 -5 36 1 23 5 57 7 75 5 18 -3 36 0 40 6 4
6 1 7 -8 3 -8 -4 -6 -1 3 7 10 7 20 32 24 55 4 27 12 42 21 42 8 0 28 11 45
25 16 14 35 25 41 26 7 0 20 2 29 4 9 2 22 -3 28 -10 8 -10 4 -20 -16 -42 -36
-39 -60 -86 -45 -91 6 -2 8 -9 5 -14 -5 -7 -2 -8 7 -2 33 20 37 10 9 -22 -35
-40 -38 -49 -10 -34 11 6 20 8 20 6 0 -3 19 2 43 10 23 9 49 17 57 19 8 2 24
6 35 10 11 4 16 3 10 -2 -26 -22 -8 -41 30 -33 6 1 17 3 27 5 9 2 29 10 46 19
38 19 96 30 87 16 -3 -5 -14 -10 -23 -10 -23 0 -92 -57 -92 -76 0 -22 27 -28
52 -10 24 17 49 21 47 9 -1 -5 -1 -15 0 -24 3 -47 181 -9 181 39 0 5 7 9 15 9
12 0 12 -3 2 -16 -9 -12 -9 -13 1 -7 17 10 15 -19 -3 -34 -8 -7 -12 -17 -8
-23 3 -5 2 -8 -3 -5 -5 3 -15 0 -22 -8 -11 -12 -10 -15 2 -20 9 -3 13 -10 10
-15 -3 -5 0 -9 6 -9 6 0 27 -15 48 -32 53 -47 181 -174 158 -157 -18 13 -19
12 -13 -3 5 -15 1 -18 -22 -18 -38 0 -35 -12 18 -85 53 -74 115 -204 129 -270
19 -90 21 -117 26 -350 3 -142 1 -203 -4 -160 -4 39 -8 133 -9 210 -2 131 -15
256 -21 195 -1 -14 -2 -33 -1 -42 2 -19 -28 -82 -35 -75 -3 3 2 19 10 36 21
39 20 50 -2 44 -10 -2 -24 2 -30 10 -10 12 -8 13 12 10 26 -5 39 7 30 30 -9
25 -37 30 -52 10 -13 -17 -13 -17 -10 3 2 11 -2 27 -9 35 -6 8 -19 34 -28 59
-32 85 -44 115 -45 106 0 -12 -30 14 -30 26 0 6 7 5 15 -2 13 -10 15 -9 15 9
0 11 -4 21 -10 21 -5 0 -10 9 -10 20 0 11 5 20 10 20 6 0 10 -4 10 -10 0 -5 5
-10 11 -10 5 0 -2 16 -17 35 -16 22 -35 35 -48 34 -21 0 -21 0 1 -11 19 -9 22
-18 21 -54 -1 -23 -6 -40 -10 -38 -4 3 -8 11 -8 18 0 7 -11 18 -25 24 -26 12
-34 47 -12 55 7 3 5 6 -5 6 -10 1 -18 -5 -18 -11 -1 -8 -6 -6 -14 5 -7 9 -19
17 -26 17 -7 0 16 -30 52 -67 35 -38 76 -86 91 -108 31 -48 82 -193 98 -278
11 -64 14 -1748 3 -1831 -17 -123 -59 -258 -114 -367 -28 -55 -141 -171 -211
-218 -59 -39 -144 -75 -254 -107 -55 -16 -138 -18 -930 -21 -565 -3 -897 0
-948 6 -92 13 -197 46 -304 98 -143 69 -262 215 -316 388 -54 173 -52 133 -52
1130 l0 930 24 75 c12 41 34 99 47 129 24 55 117 176 161 210 19 16 20 20 7
25 -8 3 -27 3 -42 -1 -20 -5 -22 -8 -10 -12 21 -8 5 -51 -22 -58 -11 -3 -20
-13 -20 -23 0 -23 -36 -54 -51 -44 -9 5 -10 2 -6 -9 10 -26 -61 -166 -93 -182
-14 -7 -32 -21 -39 -29 -11 -13 -10 -19 10 -36 l24 -21 -23 6 c-21 6 -23 4
-17 -17 4 -12 14 -33 22 -46 14 -22 13 -23 -6 -12 -27 14 -35 48 -28 116 3 30
4 54 2 54 -18 0 -26 -160 -27 -565 -1 -253 -5 -469 -9 -480 -11 -29 -10 799 0
930 14 159 53 275 144 420 6 10 22 28 35 38 23 19 22 40 -3 31 -7 -3 -20 4
-27 15 -11 19 -14 19 -33 4 -11 -9 39 42 110 113 72 71 135 128 140 126 6 -2
2 3 -8 11 -14 11 -15 16 -5 20 9 4 8 6 -3 6 -24 1 -51 36 -47 62 5 33 34 32
48 -2 11 -25 23 -35 33 -26 2 1 11 -5 19 -14 19 -19 112 -20 114 -1 1 7 3 15
4 20 1 4 2 11 1 15 -2 9 41 -2 49 -12 9 -11 30 -7 40 9 6 10 3 20 -9 31 -18
17 -80 53 -93 54 -3 0 -10 3 -13 7 -11 11 45 -1 90 -18 22 -9 48 -18 58 -20
57 -13 58 -13 56 4 -1 9 -1 20 0 23 0 3 38 -7 84 -22 45 -15 83 -26 85 -24 8
8 -20 44 -38 50 -11 3 -20 13 -20 20 0 11 6 12 26 5 57 -22 52 15 -12 90 -49
58 -48 56 -32 66 7 4 8 3 4 -4 -4 -7 -2 -12 4 -12 6 0 9 -4 5 -9 -3 -5 -1 -12
4 -15 5 -4 8 5 7 18 -2 18 1 23 13 21 26 -5 91 -46 91 -58 0 -6 3 -7 6 -4 16
15 42 -15 47 -54 7 -53 13 -58 73 -64 65 -7 76 -9 92 -19 10 -6 13 -3 11 10
-1 11 1 27 6 37 5 12 2 24 -7 33 -13 14 -17 14 -32 -1 -24 -25 -50 -11 -43 23
13 67 14 65 -33 83 l-45 17 34 20 c20 12 44 18 59 16 35 -7 36 -8 17 -37 -14
-23 -14 -25 0 -31 9 -3 30 -6 45 -6 34 0 69 -33 77 -73 3 -15 10 -30 14 -33 5
-3 7 -10 4 -15 -4 -5 -1 -9 5 -9 6 0 8 -6 4 -12 -4 -7 2 -4 14 6 15 13 22 31
22 54 0 26 4 33 15 28 8 -3 22 2 30 11 15 14 16 11 11 -30 l-6 -45 36 9 c45
13 79 8 79 -11 1 -32 15 -41 40 -24 22 14 25 14 44 -5 12 -12 24 -21 27 -22
17 -2 24 33 24 118 0 103 11 146 35 137 16 -6 21 11 6 20 -5 3 -18 21 -29 39
l-19 34 21 -4 c17 -4 22 1 24 22 1 15 4 31 8 36 9 15 41 10 48 -7z m1794 -60
c-10 -10 -28 6 -28 24 0 15 1 15 17 -1 9 -9 14 -19 11 -23z m-3614 11 c-4 -8
-8 -15 -10 -15 -2 0 -4 7 -4 15 0 8 4 15 10 15 5 0 7 -7 4 -15z m822 -99 c1
-7 -4 -13 -12 -13 -9 0 -11 4 -4 12 5 7 8 15 5 18 -3 4 -2 5 2 2 4 -3 8 -11 9
-19z m1427 1 c-12 -21 -87 -104 -78 -87 11 21 75 100 81 100 3 0 1 -6 -3 -13z
m537 7 c0 -8 -19 -13 -24 -6 -3 5 1 9 9 9 8 0 15 -2 15 -3z m-1390 -59 l25
-30 -25 20 c-29 23 -40 36 -40 50 0 6 3 6 8 0 4 -6 18 -23 32 -40z m-633 10
c-4 -8 -2 -17 4 -21 13 -7 -18 -44 -37 -44 -25 0 -24 19 2 49 28 34 39 40 31
16z m2092 -21 c4 3 12 -4 19 -14 9 -14 8 -19 -3 -24 -15 -5 -48 37 -37 48 4 4
8 2 10 -3 2 -6 7 -9 11 -7z m917 -371 c37 -30 43 -43 19 -43 -8 0 -15 5 -15
10 0 6 -11 22 -25 35 -32 33 -22 32 21 -2z m-204 -117 c4 -19 1 -22 -18 -18
-18 3 -28 -4 -45 -32 -11 -20 -25 -36 -30 -36 -13 0 -39 63 -39 92 1 20 2 21
11 6 13 -23 41 -23 70 1 28 22 45 18 51 -13z m-3497 14 c9 -14 58 -13 73 2 17
17 16 -23 -2 -66 -20 -48 -33 -51 -52 -14 -19 38 -49 69 -58 61 -3 -4 -6 -1
-6 5 0 9 14 19 32 21 4 1 10 -3 13 -9z m3803 -51 c-3 -8 -7 -3 -11 10 -4 17
-3 21 5 13 5 -5 8 -16 6 -23z m-507 -66 c13 -16 12 -17 -3 -4 -17 13 -22 21
-14 21 2 0 10 -8 17 -17z m-3150 -26 c-10 -9 -11 -8 -5 6 3 10 9 15 12 12 3
-3 0 -11 -7 -18z m-11 -21 c0 -3 -4 -8 -10 -11 -5 -3 -10 -1 -10 4 0 6 5 11
10 11 6 0 10 -2 10 -4z m-220 -133 c14 -9 40 -33 58 -52 18 -20 37 -35 41 -34
5 1 2 -30 -5 -70 -8 -40 -19 -103 -24 -142 l-9 -70 4 89 c4 120 -13 178 -63
211 -20 13 -51 25 -69 27 -31 2 -31 2 -17 30 17 33 47 37 84 11z m3698 -5 c7
-27 4 -32 -21 -35 -78 -12 -116 -75 -118 -195 -1 -46 -4 -69 -6 -53 -2 17 -11
65 -19 107 -15 75 -15 77 7 110 49 75 144 115 157 66z m-3890 -207 c-5 -24
-38 -27 -38 -3 0 10 3 21 6 25 11 11 35 -5 32 -22z m4040 1 c2 -14 -2 -22 -12
-22 -19 0 -29 17 -22 36 8 22 30 12 34 -14z m-443 -101 c3 -5 1 -12 -5 -16 -5
-3 -10 1 -10 9 0 18 6 21 15 7z m196 -144 c55 -53 98 -70 177 -71 60 -1 70 -3
49 -10 -15 -6 -27 -12 -27 -15 0 -9 -127 -3 -167 8 -20 6 -41 7 -46 4 -6 -3
-7 -1 -3 5 4 7 2 12 -3 12 -6 0 -11 -9 -11 -21 0 -11 4 -17 10 -14 5 3 7 0 4
-9 -6 -16 23 -36 55 -36 53 0 241 -110 241 -141 0 -5 9 -18 20 -29 12 -12 18
-25 15 -30 -3 -5 0 -12 6 -16 8 -4 9 -3 5 4 -5 8 -1 10 10 5 14 -5 13 -8 -6
-18 -15 -8 -19 -15 -11 -19 6 -4 8 -12 5 -18 -5 -7 -1 -9 9 -5 11 4 14 2 10
-9 -3 -7 1 -14 8 -14 7 0 10 -3 7 -6 -4 -3 -21 2 -40 12 -36 19 -61 21 -126
10 -48 -7 -136 -48 -148 -68 -5 -8 1 -7 16 3 85 55 242 52 288 -6 9 -12 25
-24 35 -28 10 -4 16 -11 13 -16 -3 -5 0 -14 8 -20 12 -10 15 -37 6 -48 -2 -2
-3 -6 -4 -10 -8 -35 -19 -52 -29 -47 -7 4 -9 4 -5 -1 11 -11 -12 -36 -25 -28
-5 3 -7 2 -4 -4 9 -14 -37 -33 -79 -33 -31 0 -35 -3 -32 -22 2 -19 10 -24 43
-26 37 -3 45 2 97 51 31 30 55 57 52 60 -3 2 2 7 10 10 9 4 15 3 15 -1 -3 -19
2 -25 11 -12 6 9 10 10 10 3 0 -14 -37 -36 -48 -29 -4 2 -8 -10 -8 -27 -1 -18
1 -26 3 -19 4 9 8 10 18 2 10 -8 15 -8 21 1 4 8 3 9 -4 5 -8 -4 -12 0 -12 12
0 10 6 19 13 19 9 0 13 -12 12 -36 -1 -20 -6 -36 -13 -36 -7 0 -11 -4 -9 -10
1 -5 6 -9 10 -7 5 1 7 -3 4 -10 -2 -7 -10 -12 -16 -11 -16 4 -13 -17 4 -23 18
-7 13 -50 -5 -46 -7 2 -10 -3 -7 -11 3 -8 -4 -29 -14 -47 -37 -60 -87 -98
-162 -121 -80 -26 -81 -26 -102 -28 -16 -1 -85 -59 -83 -69 1 -4 -3 -17 -10
-29 -11 -19 -10 -22 3 -17 11 5 13 2 9 -10 -9 -23 4 -20 30 9 28 30 59 24 54
-9 -2 -15 -9 -20 -26 -19 -16 2 -21 -1 -16 -10 5 -8 2 -7 -9 2 -20 16 -29 10
-34 -21 -2 -12 -1 -19 3 -15 4 3 16 1 28 -5 11 -7 26 -11 31 -9 6 1 0 -7 -12
-19 -23 -20 -31 -36 -15 -26 5 3 9 -1 9 -9 0 -10 -5 -11 -19 -4 -10 5 -18 7
-18 3 0 -3 -7 -1 -15 6 -8 7 -15 17 -15 23 0 6 7 2 16 -9 14 -18 15 -18 4 4
-6 12 -8 22 -4 22 3 0 2 6 -5 13 -6 8 -9 24 -6 37 2 12 1 20 -2 16 -9 -9 -12
-27 -19 -140 -5 -95 -5 -99 13 -85 17 13 17 13 0 -8 -14 -16 -17 -34 -15 -84
l3 -63 27 51 c15 27 25 53 21 57 -3 3 -1 6 7 6 10 0 10 4 -1 17 -11 13 -11 15
-1 9 15 -9 55 22 46 36 -3 5 -12 1 -21 -9 -13 -17 -13 -16 -3 4 8 19 6 26 -17
49 -16 15 -20 22 -10 15 13 -11 20 -11 32 -1 8 7 16 10 16 6 1 -3 2 -9 3 -13
1 -5 5 -14 9 -20 6 -9 3 -11 -10 -6 -14 5 -16 3 -6 -7 10 -11 15 -11 28 0 15
13 21 35 7 26 -5 -3 -9 1 -9 9 0 8 4 12 7 10 11 -7 75 40 73 53 -3 12 15 11
37 -3 9 -5 8 -1 -4 13 -37 42 14 142 66 129 12 -3 17 0 16 12 -3 35 4 47 46
78 43 33 63 42 51 24 -3 -5 0 -13 6 -17 7 -4 9 -3 5 4 -3 6 -1 14 5 18 9 5 10
-2 5 -27 l-6 -34 36 43 c21 23 45 42 55 42 10 0 21 5 25 11 4 7 9 8 17 0 7 -7
6 -15 -2 -25 -7 -8 -10 -20 -6 -26 4 -6 3 -9 -2 -8 -11 4 -54 -27 -48 -34 3
-3 -6 -4 -20 -3 -27 3 -32 -4 -14 -22 8 -8 7 -13 -2 -18 -7 -5 -10 -4 -5 3 3
6 -3 16 -15 22 -17 10 -23 8 -35 -7 -7 -10 -14 -22 -14 -26 0 -5 -6 -5 -12 -1
-8 5 -7 0 2 -11 9 -11 10 -16 3 -11 -24 14 -50 14 -50 1 0 -8 4 -12 9 -9 12 8
10 -10 -3 -23 -8 -8 -7 -13 2 -18 8 -6 10 -4 4 5 -5 9 -4 11 4 6 15 -10 4 -26
-18 -26 -10 0 -21 -3 -25 -7 -4 -5 -13 -8 -19 -8 -7 0 -12 -9 -12 -20 0 -16 6
-19 27 -17 15 1 29 -2 32 -7 7 -11 -46 -31 -82 -31 -38 0 -137 -111 -187 -209
-29 -59 -37 -81 -40 -126 -2 -16 -6 -38 -10 -48 -19 -46 18 -188 52 -201 9 -4
21 10 35 39 12 25 26 45 30 45 18 0 6 28 -14 34 -18 4 -20 8 -10 18 10 10 14
10 21 0 6 -10 29 -2 97 33 147 77 173 108 175 204 0 31 8 73 17 94 17 39 17
39 36 18 10 -11 19 -36 19 -56 l1 -36 42 45 c50 55 81 61 82 16 0 -23 -9 -38
-40 -65 -34 -29 -38 -35 -21 -35 27 0 68 -33 59 -48 -9 -15 -46 -16 -46 -1 0
5 -5 7 -10 4 -6 -4 -8 -11 -5 -16 4 -5 2 -16 -2 -24 -8 -13 -14 -11 -43 11
l-35 25 -30 -33 c-42 -47 -103 -93 -148 -112 -21 -8 -36 -20 -32 -26 8 -13 51
-5 47 10 -1 6 2 9 8 5 15 -10 -5 -33 -28 -31 -9 1 -27 7 -39 14 -19 10 -24 8
-47 -19 -14 -17 -26 -27 -26 -23 0 17 -27 -33 -38 -71 -19 -64 -21 -90 -10
-135 8 -32 20 -47 52 -67 22 -15 35 -28 28 -31 -21 -7 -79 37 -96 72 -8 18
-16 48 -18 67 -1 20 -12 44 -26 59 -26 26 -67 100 -56 100 4 0 2 6 -4 13 -10
13 -20 97 -23 205 -1 34 -5 62 -8 62 -3 0 -5 36 -3 80 3 74 -7 104 -22 64 -4
-10 -2 -13 7 -8 9 6 9 5 0 -7 -6 -8 -13 -27 -16 -44 -5 -36 -11 1394 -6 1540
l2 50 6 -42 c4 -24 17 -52 32 -66z m-3693 71 c7 -7 12 -21 12 -32 0 -18 -1
-18 -25 4 -14 13 -25 27 -25 32 0 12 24 10 38 -4z m3836 0 c-14 -23 -38 -48
-46 -48 -14 0 -9 23 9 42 18 20 49 25 37 6z m-3549 -8 c3 -5 1 -10 -4 -10 -6
0 -11 5 -11 10 0 6 2 10 4 10 3 0 8 -4 11 -10z m-128 -787 c-1 -428 -5 -800
-8 -828 l-6 -50 -1 53 c-2 37 -5 51 -14 46 -7 -5 -8 -3 -2 7 12 19 11 41 -1
58 -7 11 -7 13 3 7 7 -4 12 -2 12 7 0 7 -7 14 -15 14 -11 0 -14 -16 -13 -76 0
-42 -2 -96 -6 -121 -3 -25 -8 -80 -9 -122 -2 -43 -7 -81 -10 -85 -4 -3 -7 -13
-7 -22 0 -9 -13 -44 -29 -78 -16 -34 -27 -64 -24 -67 4 -3 2 -6 -4 -6 -10 0
-28 -46 -25 -62 3 -15 -92 -97 -120 -103 -46 -11 -43 -1 12 33 54 34 84 83 76
125 -2 12 -7 39 -11 59 -13 69 -147 188 -186 167 -15 -7 -17 -6 -13 6 4 8 1
15 -5 15 -5 0 -40 27 -75 61 l-66 61 -32 -28 -33 -27 -10 27 c-7 21 -14 26
-32 22 -12 -4 -24 -2 -27 2 -9 14 24 52 45 52 10 0 19 5 19 10 0 6 -5 10 -10
10 -25 0 -60 50 -60 84 0 34 1 35 29 25 29 -10 41 -20 86 -74 l25 -30 -10 28
c-11 30 -1 65 23 86 14 11 18 8 31 -23 8 -19 14 -59 14 -88 -1 -52 31 -138 51
-138 4 0 20 -12 35 -26 14 -15 26 -24 26 -20 0 4 13 0 30 -9 16 -8 31 -14 32
-13 2 2 17 -7 35 -20 17 -12 43 -22 57 -22 26 0 34 -18 16 -36 -6 -6 2 -26 20
-55 16 -26 26 -50 23 -53 -4 -3 -4 -6 0 -6 3 0 18 21 33 46 22 38 27 58 27
116 0 68 -4 79 -38 91 -5 3 -7 8 -3 12 4 4 14 2 23 -5 20 -17 20 0 -1 60 -30
83 -55 126 -67 114 -3 -3 -8 0 -13 7 -4 8 -3 10 4 5 24 -14 11 8 -35 63 -69
82 -78 90 -109 91 -56 2 -72 4 -68 11 2 4 -2 9 -8 12 -7 2 -10 8 -6 12 4 4 21
3 37 -3 17 -6 31 -8 31 -4 -1 13 -27 42 -38 42 -17 0 -24 18 -11 26 8 5 9 3 4
-6 -5 -9 -4 -11 4 -6 6 4 9 12 5 17 -3 6 -16 4 -31 -6 -14 -10 -22 -12 -18 -5
5 8 3 11 -6 8 -8 -3 -13 -11 -11 -17 1 -7 -2 -9 -9 -5 -9 5 -5 13 10 26 13 10
27 15 32 12 5 -3 9 0 9 5 0 6 -5 11 -10 11 -10 0 -7 38 5 62 4 7 0 4 -9 -6 -8
-10 -13 -22 -11 -26 3 -5 -2 -11 -11 -14 -8 -3 -12 -11 -8 -17 4 -7 3 -9 -3
-6 -5 4 -9 22 -8 42 2 19 -1 38 -6 40 -4 3 -6 -4 -4 -15 2 -12 0 -18 -6 -14
-5 3 -17 0 -26 -8 -14 -11 -16 -11 -9 1 6 9 5 12 -5 9 -8 -3 -13 -10 -12 -16
2 -6 -4 -9 -12 -5 -14 5 -13 7 1 18 15 11 14 14 -12 40 -16 15 -23 24 -15 20
10 -6 12 -4 7 4 -4 6 -15 10 -24 9 -12 -2 -17 4 -16 19 0 12 -3 20 -8 17 -4
-3 -8 4 -8 14 0 16 5 19 23 15 33 -8 47 -22 40 -40 -4 -10 -2 -14 4 -10 14 9
24 -17 12 -32 -6 -8 -5 -8 3 -1 16 14 31 13 22 -2 -4 -7 -3 -8 5 -4 13 9 12
54 -2 73 -5 7 11 1 36 -13 53 -29 100 -81 93 -100 -3 -8 -2 -14 2 -15 33 -3
50 -12 70 -34 24 -28 29 -74 10 -93 -9 -9 -9 -12 3 -12 14 0 60 -42 110 -100
12 -14 42 -60 66 -102 25 -43 47 -78 49 -78 2 0 3 49 2 109 -3 106 -3 109 -23
98 -18 -9 -18 -8 -7 5 9 11 10 18 2 23 -6 4 -10 12 -9 18 3 25 -1 38 -11 32
-6 -4 -8 -10 -5 -15 3 -5 -7 -3 -21 5 -15 8 -32 12 -38 8 -6 -3 7 11 29 31 22
19 34 35 27 36 -7 0 -10 5 -6 11 4 7 -1 7 -16 -1 -12 -7 -20 -7 -16 -2 3 6 -2
8 -12 5 -27 -7 -47 21 -28 40 8 8 13 17 11 19 -3 3 5 4 18 4 12 -1 21 4 20 10
-3 16 25 13 31 -3 3 -8 2 -11 -3 -8 -5 3 -13 0 -17 -6 -4 -7 -3 -9 3 -6 16 10
30 -15 28 -50 -1 -18 1 -33 5 -33 7 0 9 -8 13 -59 2 -37 23 -55 23 -21 0 11
-3 20 -6 20 -3 0 -5 19 -6 43 -2 69 -14 108 -46 147 -25 32 -42 41 -111 60
-45 13 -98 31 -117 41 -67 33 -141 134 -135 184 1 14 -1 22 -5 20 -4 -3 -10 4
-13 15 -3 13 -1 18 6 14 8 -5 7 -2 0 7 -17 17 -17 32 0 23 8 -6 8 -3 -1 9 -20
23 -6 40 21 26 21 -10 21 -9 3 5 -10 9 -22 13 -26 11 -11 -7 -6 49 5 57 6 5 6
8 -1 8 -6 0 -11 6 -11 14 0 7 11 14 23 14 17 0 30 -12 48 -42 42 -71 73 -96
122 -96 65 0 68 29 4 38 -31 4 -78 33 -110 67 -37 40 -35 103 5 146 64 68 190
93 278 55 22 -9 36 -13 33 -7 -11 17 -119 53 -159 53 -45 -1 -135 -40 -167
-73 l-22 -24 12 23 c6 13 9 26 6 29 -3 4 -1 12 5 20 6 7 8 13 4 13 -4 0 -2 7
5 15 7 8 17 12 23 8 6 -3 7 -1 3 6 -10 16 18 57 77 111 75 68 124 97 212 126
99 33 112 42 88 60 -17 13 -17 14 2 8 15 -4 16 -3 6 4 -9 6 -33 5 -73 -4 -36
-9 -79 -12 -107 -8 -25 4 -57 7 -71 9 -36 3 -54 15 -68 50 l-12 30 26 -29 c24
-27 32 -30 93 -30 54 0 77 6 126 30 36 18 68 43 80 62 11 17 23 31 27 32 4 0
6 -350 5 -777z m3383 693 c0 -3 -4 -8 -10 -11 -5 -3 -10 -1 -10 4 0 6 5 11 10
11 6 0 10 -2 10 -4z m438 -25 c-8 -12 -18 -18 -21 -14 -4 3 1 14 11 23 22 23
28 17 10 -9z m-4270 -3 c18 -18 15 -42 -7 -62 -23 -21 -57 -17 -55 7 1 9 -2
14 -7 11 -17 -10 -9 16 11 36 23 23 41 25 58 8z m4416 -10 c-6 -10 -5 -10 7
-1 12 10 17 8 27 -8 7 -11 8 -19 2 -19 -5 0 -7 -8 -3 -17 3 -10 3 -15 -2 -11
-4 4 -14 3 -22 -3 -26 -22 -61 40 -36 64 12 13 35 8 27 -5z m-588 -45 c0 -10
-9 -21 -19 -25 -26 -11 -19 -54 8 -50 20 4 20 4 0 -11 -19 -15 -19 -16 -1 -36
11 -12 17 -24 14 -27 -3 -3 -15 8 -27 24 -27 39 -27 89 1 119 26 28 26 28 24
6z m-3226 -35 c0 -16 -33 9 -36 27 -2 16 -1 15 17 -1 10 -9 19 -21 19 -26z m0
-47 c0 -14 -5 -18 -20 -14 -19 5 -20 6 -3 19 23 17 23 17 23 -5z m-27 -46 c-3
-9 -8 -14 -10 -11 -3 3 -2 9 2 15 9 16 15 13 8 -4z m3284 -82 c-3 -10 -5 -4
-5 12 0 17 2 24 5 18 2 -7 2 -21 0 -30z m-3283 -49 c3 -8 2 -12 -4 -9 -6 3
-10 10 -10 16 0 14 7 11 14 -7z m3791 -73 c3 -5 2 -12 -3 -15 -5 -3 -9 1 -9 9
0 17 3 19 12 6z m-535 -31 c0 -5 -5 -10 -11 -10 -5 0 -7 5 -4 10 3 6 8 10 11
10 2 0 4 -4 4 -10z m-3252 -110 l22 -30 -25 12 c-14 6 -25 19 -25 30 0 24 2
23 28 -12z m3252 0 c0 -13 -7 -20 -20 -20 -11 0 -20 -5 -20 -12 0 -6 -3 -8 -6
-5 -8 8 23 57 36 57 6 0 10 -9 10 -20z m610 -12 c0 -18 -2 -20 -9 -8 -6 8 -7
18 -5 22 9 14 14 9 14 -14z m-4488 -20 c-7 -7 -12 -8 -12 -2 0 14 12 26 19 19
2 -3 -1 -11 -7 -17z m3905 -145 c-2 -16 -4 -5 -4 22 0 28 2 40 4 28 2 -13 2
-35 0 -50z m-3267 -307 c0 -3 -4 -8 -10 -11 -5 -3 -10 -1 -10 4 0 6 5 11 10
11 6 0 10 -2 10 -4z m-415 -76 c3 -6 -1 -7 -9 -4 -18 7 -21 14 -7 14 6 0 13
-4 16 -10z m415 0 c8 -5 12 -11 10 -14 -3 -2 -14 2 -24 10 -22 15 -10 19 14 4z
m3235 0 c8 -13 -5 -13 -25 0 -13 8 -13 10 2 10 9 0 20 -4 23 -10z m623 -14
c-8 -6 -15 -15 -16 -19 -1 -17 -9 -16 -9 1 0 23 17 43 30 35 6 -4 5 -10 -5
-17z m-4183 4 c3 -6 -1 -7 -9 -4 -18 7 -21 14 -7 14 6 0 13 -4 16 -10z m-85
-24 c0 -2 -8 -10 -17 -17 -16 -13 -17 -12 -4 4 13 16 21 21 21 13z m25 -24 c0
-4 10 -17 23 -30 23 -23 22 -45 -2 -36 -7 3 -16 -2 -19 -11 -5 -12 -1 -14 19
-11 21 4 24 3 14 -9 -12 -15 -24 -11 -60 16 -13 9 -13 10 2 6 26 -9 29 19 5
38 -20 15 -20 15 6 0 33 -19 50 -12 22 9 -10 7 -20 21 -21 31 -1 9 1 14 4 10
4 -4 7 -10 7 -13z m-248 -7 c0 -8 -4 -12 -9 -9 -5 3 -6 10 -3 15 9 13 12 11
12 -6z m4439 -11 c1 -9 0 -13 -4 -10 -3 4 -7 14 -8 22 -1 9 0 13 4 10 3 -4 7
-14 8 -22z m-4491 -42 c-3 -3 -11 0 -18 7 -9 10 -8 11 6 5 10 -3 15 -9 12 -12z
m49 0 c2 -4 -4 -8 -14 -8 -10 0 -16 4 -14 8 3 4 9 8 14 8 5 0 11 -4 14 -8z
m4146 -2 c8 -5 11 -10 5 -10 -5 0 -17 5 -25 10 -8 5 -10 10 -5 10 6 0 17 -5
25 -10z m97 -4 c5 -4 1 -6 -7 -4 -8 2 -14 -3 -12 -10 1 -8 -2 -11 -8 -7 -6 3
-8 11 -5 16 4 5 2 9 -4 9 -15 0 -23 -18 -11 -25 5 -3 10 -11 10 -18 0 -6 -6
-2 -14 9 -24 32 22 59 51 30z m-60 -55 c-1 -16 -4 -17 -15 -9 -10 9 -11 13 0
19 17 11 17 12 15 -10z m40 1 c0 -10 -6 -19 -13 -19 -9 0 -9 5 -1 19 7 10 13
18 14 18 1 0 1 -8 0 -18z m-3860 -66 c0 -8 -6 -12 -14 -9 -7 3 -10 9 -7 14 8
14 21 11 21 -5z m27 -32 c3 -8 2 -12 -4 -9 -6 3 -10 10 -10 16 0 14 7 11 14
-7z m3700 -2 c3 -5 -1 -9 -9 -9 -8 0 -12 4 -9 9 3 4 7 8 9 8 2 0 6 -4 9 -8z
m-3894 -67 c27 -29 32 -45 33 -97 0 -22 6 -39 14 -42 8 -3 12 -2 9 2 -2 4 -1
14 4 22 7 12 11 12 26 -1 11 -9 15 -9 10 -1 -13 21 12 13 28 -10 22 -31 3 -48
-25 -22 l-22 19 18 -27 c16 -25 14 -33 -7 -29 -8 1 -9 -2 -12 -31 0 -7 -12
-13 -26 -13 -14 0 -29 -4 -33 -10 -5 -6 -6 -2 -3 9 5 13 2 17 -9 13 -17 -7
-30 9 -15 18 6 4 7 11 4 17 -4 7 -2 8 5 4 6 -4 9 -11 6 -16 -3 -5 4 -8 15 -7
12 1 18 7 16 14 -3 7 0 15 6 19 7 5 8 2 3 -6 -5 -8 -4 -11 2 -7 5 3 10 0 10
-8 0 -14 -11 -20 -32 -15 -5 1 -7 -2 -2 -6 4 -4 16 -8 26 -9 12 -1 17 5 17 21
-2 30 -34 64 -54 57 -10 -4 -13 -2 -8 5 8 13 -6 16 -18 5 -4 -5 -17 -8 -29 -8
-18 0 -22 -6 -21 -33 1 -24 -2 -29 -12 -21 -7 5 -10 21 -8 35 4 22 -4 29 -29
25 -5 -1 -6 3 -3 8 4 5 1 11 -6 13 -7 3 -5 7 6 11 9 4 15 3 11 -2 -3 -5 -1
-12 4 -15 5 -4 8 2 6 11 -3 21 13 45 25 38 15 -10 38 36 33 66 -5 36 6 37 37
4z m4114 -9 c-4 -15 -11 -23 -18 -19 -6 3 0 -5 14 -19 14 -13 28 -23 33 -21 4
2 7 -1 7 -7 0 -6 5 -8 12 -4 7 4 8 3 4 -5 -4 -6 -11 -9 -16 -6 -5 3 -11 1 -15
-5 -3 -5 -11 -10 -16 -10 -6 0 -7 6 -3 13 5 8 3 8 -9 -2 -22 -17 -12 -34 12
-21 10 5 22 6 26 2 5 -4 5 -2 2 4 -4 6 2 10 13 9 25 -2 35 -11 15 -13 -8 -1
-22 -3 -30 -4 -8 -1 -17 -8 -19 -15 -3 -8 -10 -11 -16 -8 -11 7 -14 -8 -3 -19
4 -3 8 -13 9 -22 2 -11 -1 -12 -11 -4 -7 6 -12 22 -11 35 3 23 -16 40 -40 37
-6 -1 -9 15 -8 38 1 29 9 47 27 64 14 13 28 21 31 18 3 -3 6 1 6 8 0 7 2 11 5
8 4 -3 3 -17 -1 -32z m-3984 -62 c0 -8 -19 -13 -24 -6 -3 5 1 9 9 9 8 0 15 -2
15 -3z m3856 -46 c5 -7 2 -8 -7 -3 -8 5 -10 4 -6 0 11 -13 37 -15 37 -3 0 6 6
5 15 -2 9 -7 14 -18 12 -24 -2 -6 3 -17 12 -24 14 -11 14 -11 -1 -6 -17 6 -43
-28 -30 -40 3 -4 -1 -4 -11 -1 -15 6 -15 9 -2 22 9 8 12 19 9 25 -5 7 -2 8 7
3 8 -5 11 -4 6 0 -11 12 -47 13 -54 2 -3 -6 -1 -7 5 -3 6 3 13 2 16 -3 11 -17
-8 -20 -29 -5 -12 9 -14 14 -5 14 9 0 8 6 -6 22 -10 12 -14 18 -8 15 7 -4 14
0 18 8 7 18 12 19 22 3z m89 -30 c2 -20 1 -20 -11 -3 -7 10 -11 22 -8 27 8 13
17 2 19 -24z m-3941 -68 c-6 -6 -10 -2 -11 12 -2 16 1 18 10 9 7 -7 8 -14 1
-21z m3822 21 c-6 -9 -46 -22 -46 -15 0 3 10 9 23 14 29 11 29 11 23 1z m159
-20 c3 -5 2 -12 -3 -15 -5 -3 -9 1 -9 9 0 17 3 19 12 6z m-4525 -22 c0 -6 -6
-7 -12 -3 -9 5 -8 2 1 -9 21 -27 9 -196 -16 -215 -17 -13 -16 -14 5 -7 18 5
22 2 23 -17 0 -13 2 -33 5 -45 3 -17 -1 -23 -14 -23 -13 0 -14 2 -3 9 11 7 9
10 -8 16 -11 3 -21 13 -21 21 0 9 5 12 13 8 6 -4 -2 8 -19 27 -21 22 -30 42
-28 56 2 12 -1 25 -6 28 -5 3 -7 12 -4 20 4 8 11 12 16 9 6 -4 5 -10 -3 -16
-10 -6 -7 -7 9 -3 13 4 22 2 22 -4 0 -6 -4 -11 -9 -11 -11 0 -9 -19 2 -38 9
-13 27 -7 27 9 0 6 -6 7 -13 3 -9 -5 -9 -4 0 6 9 10 9 18 1 33 -8 16 -8 19 4
14 8 -3 15 0 15 7 0 7 -9 13 -19 13 -11 1 -16 -3 -12 -9 4 -7 2 -8 -5 -4 -6 4
-8 12 -5 18 5 7 1 9 -10 5 -13 -5 -15 -2 -12 20 11 55 76 127 76 82z m4940 0
c0 -5 -1 -11 -2 -14 -2 -2 6 -12 17 -21 19 -15 18 -15 -7 0 -33 19 -42 20 -31
4 10 -17 13 -39 4 -34 -4 3 -7 -6 -7 -19 0 -15 4 -21 14 -18 10 4 11 8 2 13
-8 5 -7 9 5 14 9 3 13 10 10 16 -4 6 1 7 11 3 12 -4 14 -8 5 -11 -8 -3 -7 -8
6 -18 15 -12 15 -13 2 -8 -21 7 -34 -12 -21 -29 10 -13 8 -45 -4 -55 -4 -4 -4
2 0 13 5 15 4 17 -4 9 -14 -14 -23 -91 -12 -98 5 -3 8 12 7 34 -1 35 0 38 18
29 17 -10 17 -12 3 -28 -18 -19 -22 -36 -7 -26 6 3 -2 -15 -15 -40 -14 -25
-30 -45 -35 -45 -6 0 -8 -4 -4 -10 3 -5 -8 -24 -26 -42 -18 -19 -28 -26 -25
-15 7 21 -2 22 -26 0 -11 -9 -18 -11 -18 -5 0 7 6 12 13 12 8 0 7 4 -3 11 -13
10 -13 10 0 6 25 -8 19 67 -7 95 -19 20 -20 26 -9 46 11 21 14 22 25 8 8 -9
11 -25 8 -36 -3 -11 0 -23 5 -27 7 -4 8 -1 3 7 -5 9 -4 11 4 6 6 -4 8 -12 5
-18 -8 -13 -13 -78 -5 -78 13 1 38 26 51 50 15 28 20 58 21 115 0 22 6 46 12
54 9 11 9 13 0 8 -20 -13 -28 77 -13 160 1 7 30 -11 30 -18z m-4143 -41 c-3
-8 -6 -5 -6 6 -1 11 2 17 5 13 3 -3 4 -12 1 -19z m-562 -27 c7 -12 -67 -33
-88 -25 -9 3 -14 11 -11 18 6 15 90 21 99 7z m92 -5 c0 -8 -6 -12 -15 -8 -11
4 -13 1 -7 -8 6 -9 4 -11 -5 -5 -10 6 -9 11 5 22 23 16 22 16 22 -1z m378 -13
c-4 -16 -9 -41 -12 -58 -3 -16 -9 -37 -14 -45 -8 -12 -9 -11 -5 5 9 37 20 110
18 118 -1 4 3 7 9 7 7 0 9 -10 4 -27z m3955 21 c0 -8 -19 -13 -24 -6 -3 5 1 9
9 9 8 0 15 -2 15 -3z m76 -2 c34 16 44 0 15 -23 -30 -24 -53 -24 -68 1 -11 16
-10 18 2 14 9 -4 15 0 16 7 0 10 2 10 5 2 4 -9 11 -9 30 -1z m-4371 -91 c3 -5
2 -12 -3 -15 -5 -3 -9 1 -9 9 0 17 3 19 12 6z m299 -88 c-53 -126 -120 -226
-211 -315 -39 -38 -41 -58 -4 -38 12 6 27 8 33 4 7 -4 8 -3 4 4 -11 18 46 42
68 30 14 -8 17 -7 12 1 -4 6 0 11 9 11 11 0 15 -5 12 -14 -4 -10 -1 -13 8 -10
8 3 11 13 8 22 -4 13 -3 14 5 3 5 -7 14 -11 20 -7 6 3 14 1 18 -5 4 -7 3 -9
-3 -6 -6 4 -19 0 -29 -8 -18 -13 -17 -14 6 -8 24 6 24 6 -6 -25 -28 -28 -41
-32 -105 -38 -41 -4 -81 -7 -89 -7 -8 0 -21 -5 -29 -11 -10 -7 -13 -8 -8 0 3
6 0 11 -7 11 -8 0 -12 -6 -9 -14 5 -12 -8 -18 -30 -14 -5 1 -6 -3 -3 -8 3 -5
-1 -25 -9 -45 -8 -19 -15 -47 -15 -61 0 -28 -15 -34 -24 -9 -4 10 -2 13 7 8 8
-6 8 -3 -1 9 -10 12 -12 28 -6 59 9 47 9 56 2 109 -6 44 -67 142 -103 165 -14
9 -32 29 -40 43 l-14 26 -13 -32 c-14 -38 -17 -39 -44 -18 -14 11 -15 14 -3 9
10 -3 20 1 25 8 4 7 4 10 -1 6 -4 -4 -14 -3 -22 3 -15 13 -18 39 -3 39 5 0 7
-7 4 -15 -4 -8 -2 -15 4 -15 13 0 9 29 -5 38 -26 16 -6 142 22 142 17 0 26
-25 18 -47 -4 -10 -2 -14 4 -10 17 11 22 -29 7 -58 -11 -22 -11 -27 1 -31 8
-3 17 -14 20 -25 4 -10 12 -19 18 -19 41 0 144 -136 149 -195 1 -14 6 -25 11
-25 4 0 6 -4 2 -9 -3 -5 0 -13 6 -17 8 -5 9 -3 4 5 -5 8 27 46 91 110 110 107
142 144 155 178 5 13 13 23 19 23 6 0 9 4 5 9 -3 5 6 22 19 36 14 15 28 40 31
56 4 16 11 29 15 29 5 0 2 -16 -6 -37z m-197 6 c-9 -6 -14 -16 -11 -22 4 -7 3
-8 -1 -4 -17 15 -12 33 9 34 19 2 19 1 3 -8z m-42 -18 c3 -5 2 -12 -3 -15 -5
-3 -9 1 -9 9 0 17 3 19 12 6z m4376 -27 c17 -20 21 -46 7 -42 -6 2 -12 12 -14
22 -1 10 -5 21 -8 24 -15 15 2 -39 17 -56 15 -16 15 -20 4 -25 -18 -7 -17 -45
1 -56 10 -6 10 -10 -2 -20 -10 -8 -16 -9 -21 -1 -3 5 -1 10 6 10 7 0 4 7 -7
15 -20 15 -38 20 -31 8 2 -5 -9 -19 -26 -33 -17 -14 -28 -18 -23 -10 6 13 -3
2 -31 -35 -35 -47 -66 -124 -68 -170 -2 -29 -6 -58 -9 -64 -4 -6 0 -14 8 -17
20 -8 20 -20 1 -28 -21 -8 -37 33 -21 53 9 12 8 13 -2 7 -9 -5 -21 0 -33 13
-11 12 -17 21 -13 21 3 0 1 6 -5 13 -6 8 -9 16 -6 18 2 3 -5 5 -16 5 -19 0
-19 -1 -2 -13 16 -13 16 -13 -7 -11 -28 3 -45 30 -24 38 8 3 -10 29 -52 75
-35 38 -64 72 -64 76 0 23 24 15 52 -17 18 -21 45 -49 60 -62 15 -14 25 -29
22 -33 -3 -5 1 -6 9 -3 20 7 58 -47 51 -73 -4 -13 0 -22 10 -26 17 -7 32 8 17
17 -6 4 -4 17 4 32 7 15 11 32 9 39 -7 17 14 67 26 60 6 -3 10 4 10 17 0 27
48 78 105 113 24 14 33 25 26 29 -6 4 -9 11 -6 16 3 5 0 12 -6 16 -8 5 -9 3
-4 -6 6 -10 4 -12 -9 -7 -9 4 -15 3 -12 -2 6 -8 -15 -21 -35 -21 -11 0 -4 59
9 72 13 13 35 1 26 -14 -5 -7 -2 -8 5 -4 7 5 20 1 31 -9 18 -16 18 -15 13 24
-6 43 5 53 28 25z m-3844 -191 c85 -112 208 -204 347 -259 34 -14 48 -22 31
-19 -16 3 -73 27 -125 52 -82 41 -108 60 -195 147 -74 74 -111 120 -138 172
-20 40 -37 78 -37 85 0 8 14 -13 31 -46 16 -33 55 -93 86 -132z m-753 161 c15
-14 23 -74 11 -74 -4 0 -19 7 -35 15 -17 9 -32 15 -35 15 -26 -1 -25 5 5 30
19 17 35 30 36 30 2 0 10 -7 18 -16z m4101 -32 c-3 -3 -11 0 -18 7 -9 10 -8
11 6 5 10 -3 15 -9 12 -12z m-4255 -28 c-6 -6 -7 -14 -3 -17 3 -4 4 -7 0 -7
-14 0 -36 32 -31 45 5 11 10 12 24 2 13 -7 16 -15 10 -23z m3960 -28 c-30 -49
-36 -46 -8 3 12 22 24 38 26 36 3 -2 -6 -20 -18 -39z m350 -16 c11 -21 6 -40
-11 -40 -6 0 -8 4 -5 9 3 5 -1 12 -10 15 -9 3 -14 12 -11 20 3 7 0 19 -6 26
-10 10 -7 10 10 1 13 -6 27 -20 33 -31z m-380 -34 c0 -2 -8 -10 -17 -17 -16
-13 -17 -12 -4 4 13 16 21 21 21 13z m-3755 -93 c-5 -32 -55 -6 -55 28 0 18 2
19 29 4 19 -9 28 -21 26 -32z m3715 44 c0 -2 -12 -14 -27 -28 l-28 -24 24 28
c23 25 31 32 31 24z m754 -36 c3 -5 -1 -14 -8 -20 -12 -10 -13 -8 -9 8 6 23 9
25 17 12z m-279 -52 c11 -12 14 -19 6 -14 -10 6 -12 4 -7 -4 5 -7 15 -10 23
-6 13 4 14 3 3 -10 -11 -13 -10 -14 4 -9 9 3 16 1 16 -5 0 -7 -15 -10 -39 -9
-33 3 -37 5 -28 17 10 12 8 12 -12 2 -24 -14 -71 -2 -71 18 0 15 24 27 48 25
13 -1 21 3 19 10 -3 6 -10 10 -16 8 -7 -1 -10 2 -6 8 8 13 33 0 60 -31z
m-4245 -89 c0 -5 -4 -10 -9 -10 -6 0 -13 5 -16 10 -3 6 1 10 9 10 9 0 16 -4
16 -10z m4580 0 c0 -5 -4 -10 -10 -10 -5 0 -10 5 -10 10 0 6 5 10 10 10 6 0
10 -4 10 -10z m100 -14 c0 -2 -7 -7 -16 -10 -8 -3 -12 -2 -9 4 6 10 25 14 25
6z m-4222 -20 c-7 -8 -15 -12 -17 -11 -5 6 10 25 20 25 5 0 4 -6 -3 -14z
m3668 -46 c0 -30 -9 -39 -21 -20 -3 6 -2 10 2 10 5 0 9 9 10 20 1 11 -2 20 -8
20 -5 0 -9 5 -9 12 0 27 25 -14 26 -42z m-3769 25 c1 -5 -11 -11 -27 -12 -17
-1 -30 2 -30 7 0 5 -8 7 -17 4 -11 -4 -14 -3 -6 3 16 11 76 10 80 -2z m3943
-22 c0 -1 -7 0 -15 3 -8 4 -15 1 -15 -5 0 -6 7 -11 15 -11 8 0 15 -5 15 -10 0
-7 -6 -7 -19 -1 -10 6 -18 21 -18 35 0 22 1 23 18 8 11 -9 19 -18 19 -19z
m-4506 -33 c-7 -7 -18 -4 -34 10 -13 11 -18 20 -12 20 6 0 9 8 5 18 -4 12 3 8
23 -10 19 -19 25 -31 18 -38z m5016 48 c-8 -7 -20 -20 -27 -28 -11 -12 -11
-10 -2 13 7 15 19 27 28 27 13 0 13 -2 1 -12z m-4360 -33 c-5 -14 -6 -25 -1
-25 13 0 22 -43 10 -55 -16 -16 -31 16 -16 34 7 8 7 12 1 8 -6 -3 -10 5 -10
24 0 16 4 29 8 29 5 0 6 5 2 12 -4 7 -3 8 4 4 8 -4 8 -15 2 -31z m-161 -7 c-8
-14 -14 -17 -21 -10 -15 15 -2 43 16 36 12 -5 13 -10 5 -26z m3021 5 c-40 -10
-142 -16 -375 -20 -176 -3 -318 -3 -315 0 3 3 147 8 320 11 173 3 331 9 350
15 19 5 44 9 55 9 11 0 -5 -7 -35 -15z m1503 2 c-3 -9 -8 -14 -10 -11 -3 3 -2
9 2 15 9 16 15 13 8 -4z m-366 -10 c0 -8 -4 -15 -8 -15 -11 0 -20 16 -12 24
11 11 20 7 20 -9z m-3060 -2 c-20 -2 -52 -2 -70 0 -17 2 0 4 38 4 39 0 53 -2
32 -4z m143 -10 c2 -2 -19 -3 -48 -2 -28 2 -52 6 -52 10 0 7 91 0 100 -8z
m695 4 c50 -2 -85 -3 -300 -3 -214 0 -329 3 -255 6 126 5 346 4 555 -3z m308
-4 c-23 -2 -64 -2 -90 0 -26 2 -7 3 42 3 50 0 71 -1 48 -3z m1583 -27 c0 -16
-4 -22 -14 -19 -11 5 -11 7 0 14 7 5 9 9 5 9 -5 0 -5 5 -2 10 9 15 11 12 11
-14z m504 19 c0 -9 -34 -45 -43 -45 -10 0 25 49 36 50 4 0 7 -2 7 -5z m-520
-65 c-7 -5 -8 -9 -2 -11 6 -2 4 -9 -4 -17 -12 -11 -13 -9 -10 10 3 13 5 27 5
31 1 5 6 5 12 1 8 -5 8 -9 -1 -14z m458 -8 c-22 -28 -60 -62 -69 -62 -5 0 -8
-5 -6 -12 1 -7 -3 -12 -9 -13 -16 0 -123 -106 -121 -119 1 -6 -3 -10 -10 -9
-6 2 -21 -9 -32 -24 -12 -14 -21 -22 -21 -17 0 4 -9 -2 -19 -13 -64 -69 -455
-329 -436 -290 4 7 0 4 -8 -5 -13 -16 -16 -16 -38 9 -13 15 -16 21 -6 14 9 -7
17 -9 17 -5 0 5 18 15 41 22 22 7 53 21 67 31 15 10 59 37 97 61 113 69 167
107 220 152 104 90 238 212 283 259 25 26 50 45 55 42 4 -2 2 -12 -5 -21z
m-4085 -9 c-5 -13 -2 -15 12 -9 11 4 16 4 13 0 -6 -6 -1 -15 30 -49 11 -12 11
-15 0 -15 -7 0 4 -11 25 -24 50 -31 56 -38 21 -26 -36 13 -96 68 -91 83 2 7
-7 20 -21 31 -18 14 -20 21 -11 27 18 11 29 2 22 -18z m3609 -40 c-6 -2 -9
-10 -6 -15 4 -7 2 -8 -5 -4 -13 9 -5 26 12 25 9 0 8 -2 -1 -6z m312 -34 c-16
-17 -38 -35 -49 -40 -11 -6 0 8 25 30 53 49 65 53 24 10z m-4184 -24 c13 -14
21 -25 18 -25 -2 0 -15 11 -28 25 -13 14 -21 25 -18 25 2 0 15 -11 28 -25z
m4091 -58 c-13 -13 -26 -3 -16 12 3 6 11 8 17 5 6 -4 6 -10 -1 -17z m-3923
-66 c28 -21 49 -40 46 -43 -3 -3 -15 3 -27 13 -71 59 -81 68 -76 69 3 0 29
-17 57 -39z m3862 19 c-14 -11 -32 -26 -40 -32 -8 -7 -18 -12 -22 -10 -5 1 -8
-2 -8 -8 0 -8 -92 -77 -97 -72 -2 1 -12 -7 -24 -19 -11 -11 -23 -18 -26 -15
-8 8 36 44 75 61 18 8 31 19 28 24 -4 5 3 12 14 16 11 3 20 11 20 16 0 5 7 9
15 9 8 0 19 9 25 20 6 10 17 17 24 14 8 -3 17 -1 21 5 3 6 9 11 13 11 4 -1 -4
-10 -18 -20z m-3930 -102 c0 -5 -20 10 -45 33 -25 23 -45 44 -45 46 0 3 20
-12 45 -33 25 -20 45 -41 45 -46z m-118 18 c10 -10 15 -23 11 -29 -3 -5 -2 -7
4 -4 5 3 25 -10 44 -30 23 -24 27 -32 13 -25 -12 6 -25 8 -29 4 -5 -4 -6 0 -3
9 5 11 0 15 -15 14 -14 -1 -21 -8 -20 -20 1 -12 -2 -14 -10 -6 -8 8 -8 14 1
23 8 8 3 21 -21 52 -17 23 -39 47 -47 54 -8 7 1 5 20 -5 19 -10 43 -26 52 -37z
m4234 29 c-3 -19 -56 -75 -70 -75 -6 0 -3 7 7 14 14 11 15 15 5 19 -10 4 -10
8 2 16 8 5 18 7 24 4 5 -3 6 -1 2 5 -5 8 15 29 31 32 1 0 0 -7 -1 -15z m-179
-73 c-97 -105 -174 -182 -181 -182 -8 0 69 84 122 133 18 17 42 46 53 64 12
18 25 30 30 27 6 -3 -6 -22 -24 -42z m106 17 c-6 -6 -9 -18 -6 -25 4 -10 0
-12 -11 -8 -9 3 -16 1 -16 -4 0 -6 -15 -21 -32 -34 -30 -21 -29 -18 12 30 25
28 49 52 55 52 5 0 4 -5 -2 -11z m-3967 -77 c-4 -3 -14 2 -24 12 -16 18 -16
18 6 6 13 -6 21 -14 18 -18z m134 -129 c22 -21 28 -31 16 -27 -13 5 -17 4 -12
-4 3 -6 2 -13 -2 -16 -5 -3 -9 7 -8 22 1 21 -4 27 -19 27 -11 0 -19 3 -17 8 4
12 -22 36 -32 29 -5 -3 -6 0 -2 6 3 5 3 12 -1 14 -5 2 -19 16 -33 33 -24 29
31 -18 110 -92z m-220 63 c31 -22 46 -41 51 -64 4 -18 2 -32 -3 -32 -5 0 -4
-10 2 -22 11 -22 10 -22 -4 -4 -9 11 -19 17 -22 13 -4 -4 -1 -15 7 -24 13 -16
12 -17 -4 -4 -10 8 -15 21 -12 29 3 8 -2 16 -14 19 -10 3 -27 23 -37 44 -17
39 -46 79 -57 79 -11 0 -1 -36 13 -47 8 -7 12 -13 7 -13 -4 0 1 -17 12 -39 11
-21 17 -41 14 -45 -4 -3 -1 -6 6 -6 7 0 10 -4 7 -9 -4 -5 -1 -11 6 -13 7 -3 5
-7 -6 -11 -11 -5 -15 -3 -10 5 5 7 2 9 -9 5 -12 -4 -14 -2 -10 10 5 12 3 14
-8 8 -11 -7 -12 -6 -2 6 7 9 8 20 3 29 -5 8 -6 18 -4 22 3 4 -2 5 -10 2 -14
-5 -14 -8 -1 -21 23 -22 18 -29 -5 -8 -14 12 -17 22 -11 28 7 7 4 15 -7 24
-10 9 -11 12 -2 7 13 -7 13 -5 2 8 -9 11 -10 18 -2 23 5 3 10 11 10 16 0 6 -6
7 -12 3 -8 -5 -8 -1 1 10 19 23 52 14 111 -28z m4029 8 c-12 -13 -25 -21 -30
-19 -4 3 -11 0 -15 -6 -4 -8 -3 -9 4 -5 7 4 12 3 12 -3 0 -5 -5 -13 -10 -16
-6 -4 -8 -10 -5 -15 5 -8 -14 -27 -30 -30 -5 -1 -9 -8 -7 -17 2 -8 -1 -12 -7
-8 -6 3 -11 -1 -11 -9 0 -19 -16 -21 -26 -4 -5 7 -3 8 7 3 11 -7 12 -6 2 6
-14 17 -1 83 20 103 55 52 144 71 96 20z m56 -34 c2 -23 -13 -27 -21 -5 -4 8
-9 13 -13 10 -4 -2 -8 2 -8 9 0 8 7 12 15 8 11 -4 13 -1 7 9 -6 11 -5 12 5 2
8 -7 14 -22 15 -33z m-10 -28 c11 -6 14 -12 7 -12 -7 0 -11 -4 -8 -8 2 -4 0
-14 -6 -22 -8 -12 -9 -12 -4 3 6 19 -4 22 -22 7 -9 -7 -9 -7 -2 2 14 16 13 31
-2 22 -6 -4 -8 -3 -4 4 3 5 0 13 -6 16 -7 2 -4 4 7 2 11 -1 29 -7 40 -14z
m-309 -24 c4 -7 3 -8 -5 -4 -6 4 -30 -14 -59 -45 -36 -39 -51 -49 -57 -39 -5
9 -4 11 4 6 7 -4 15 2 20 16 6 13 10 19 10 15 1 -4 7 -2 15 5 8 7 11 18 8 23
-3 6 -2 7 3 3 5 -5 14 1 22 12 16 23 29 25 39 8z m-3492 -36 c3 -5 -1 -9 -9
-9 -8 0 -12 4 -9 9 3 4 7 8 9 8 2 0 6 -4 9 -8z m3778 -8 c-2 -5 -9 -8 -14 -6
-6 1 -16 -3 -24 -9 -8 -6 -14 -8 -14 -4 0 5 -10 0 -22 -11 -20 -17 -19 -16 2
12 18 23 32 31 50 29 14 -1 23 -6 22 -11z m-3757 -23 c-8 -7 -45 -9 -50 -1 -2
3 9 6 25 6 17 0 27 -2 25 -5z m159 -5 c-3 -9 -12 -12 -22 -9 -15 6 -9 11 25
22 1 1 0 -5 -3 -13z m3080 -4 c3 -5 -1 -9 -9 -9 -8 0 -12 4 -9 9 3 4 7 8 9 8
2 0 6 -4 9 -8z m-3204 -22 c9 -16 8 -19 -6 -13 -13 5 -15 3 -9 -7 5 -9 4 -11
-4 -6 -6 4 -8 12 -5 18 5 8 1 9 -11 4 -15 -5 -16 -4 -5 9 17 20 27 19 40 -5z
m3297 -15 c0 -8 -4 -12 -9 -9 -5 3 -6 10 -3 15 9 13 12 11 12 -6z m-2258 -8
c8 -10 7 -14 -2 -14 -8 0 -14 6 -14 14 0 7 1 13 2 13 2 0 8 -6 14 -13z m-948
-54 c13 -16 12 -17 -3 -5 -9 8 -22 11 -28 7 -6 -4 -9 -1 -8 6 2 6 -3 14 -11
17 -9 3 -11 0 -6 -9 5 -8 4 -11 0 -6 -5 4 -10 17 -12 28 l-3 20 28 -20 c16
-11 35 -28 43 -38z m3179 44 c0 -2 -12 -14 -27 -28 l-28 -24 24 28 c23 25 31
32 31 24z m-286 -66 c3 -5 -2 -15 -12 -22 -16 -13 -16 -13 -2 5 14 18 13 19
-3 13 -11 -4 -16 -3 -12 3 8 12 22 13 29 1z m202 -19 c-17 -16 -18 -16 -5 5 7
12 15 20 18 17 3 -2 -3 -12 -13 -22z m-3041 -2 c3 -6 -1 -7 -9 -4 -18 7 -21
14 -7 14 6 0 13 -4 16 -10z m3006 -37 c13 -16 12 -17 -3 -4 -17 13 -22 21 -14
21 2 0 10 -8 17 -17z m-176 -3 c3 -6 -1 -7 -9 -4 -18 7 -21 14 -7 14 6 0 13
-4 16 -10z m-2608 -70 c-1 -12 -5 -16 -10 -11 -5 5 -6 14 -3 20 11 16 15 13
13 -9z"/>
<path d="M1731 4793 c-1 -17 16 -25 25 -12 4 7 3 9 -4 5 -5 -3 -13 0 -15 6 -4
9 -6 10 -6 1z"/>
<path d="M3374 4782 c4 -3 14 -7 22 -8 9 -1 13 0 10 4 -4 3 -14 7 -22 8 -9 1
-13 0 -10 -4z"/>
<path d="M1211 4554 c0 -11 3 -14 6 -6 3 7 2 16 -1 19 -3 4 -6 -2 -5 -13z"/>
<path d="M1850 4370 c0 -5 5 -10 10 -10 6 0 10 5 10 10 0 6 -4 10 -10 10 -5 0
-10 -4 -10 -10z"/>
<path d="M1972 4372 c-19 -3 -21 -6 -12 -17 10 -12 14 -12 27 1 18 18 16 21
-15 16z"/>
<path d="M2174 4361 c14 -13 18 -13 31 -1 12 13 10 15 -16 16 -28 1 -29 0 -15
-15z"/>
<path d="M2335 4355 c0 -19 3 -22 10 -13 6 7 17 19 25 26 12 10 10 12 -10 12
-20 0 -25 -5 -25 -25z"/>
<path d="M2400 4365 c7 -8 16 -15 21 -15 5 0 6 7 3 15 -4 8 -13 15 -21 15 -13
0 -13 -3 -3 -15z"/>
<path d="M2440 4376 c0 -8 61 -12 66 -4 3 4 -11 8 -30 8 -20 0 -36 -2 -36 -4z"/>
<path d="M2613 4363 c14 -7 26 -8 32 -2 13 13 53 11 57 -3 3 -9 10 -8 22 5 18
17 15 18 -57 15 -65 -2 -73 -5 -54 -15z"/>
<path d="M2860 4371 c0 -18 29 -25 53 -13 l22 11 -22 0 c-12 1 -28 4 -37 7 -9
3 -16 1 -16 -5z"/>
<path d="M2941 4356 c-13 -14 -38 -27 -55 -29 -17 -2 -4 -4 29 -3 44 0 66 5
80 18 24 23 -1 25 -27 1 -25 -22 -36 -8 -13 17 26 29 13 25 -14 -4z"/>
<path d="M3080 4372 c0 -4 9 -8 20 -9 11 -1 18 2 15 8 -7 11 -35 12 -35 1z"/>
<path d="M1678 4363 c6 -2 18 -2 25 0 6 3 1 5 -13 5 -14 0 -19 -2 -12 -5z"/>
<path d="M1729 4344 c-23 -25 -23 -26 -2 -15 23 12 38 29 31 37 -3 2 -15 -8
-29 -22z"/>
<path d="M1920 4345 c13 -14 25 -23 27 -21 6 6 -30 46 -41 46 -5 0 1 -11 14
-25z"/>
<path d="M2116 4362 c-9 -14 10 -33 40 -38 l29 -5 -24 25 c-26 27 -36 31 -45
18z m24 -12 c0 -5 -2 -10 -4 -10 -3 0 -8 5 -11 10 -3 6 -1 10 4 10 6 0 11 -4
11 -10z"/>
<path d="M2230 4351 c-13 -26 -13 -31 5 -31 8 0 15 4 15 9 0 5 3 16 6 25 9 23
-13 20 -26 -3z"/>
<path d="M2280 4360 c-8 -5 -10 -10 -5 -10 6 0 17 5 25 10 8 5 11 10 5 10 -5
0 -17 -5 -25 -10z"/>
<path d="M2760 4364 c0 -7 27 -34 33 -34 3 0 3 9 0 20 -5 17 -33 30 -33 14z"/>
<path d="M3027 4346 c4 -16 10 -23 20 -19 8 3 12 12 9 20 -3 8 -6 17 -6 19 0
2 -6 4 -14 4 -9 0 -12 -8 -9 -24z"/>
<path d="M3145 4350 c-10 -11 -16 -20 -12 -20 3 0 11 -2 19 -5 8 -3 13 3 14
20 2 30 2 30 -21 5z"/>
<path d="M3360 4350 c6 -11 18 -20 27 -20 12 0 11 4 -7 20 -13 11 -25 20 -27
20 -2 0 1 -9 7 -20z"/>
<path d="M1617 4335 c18 -24 43 -34 43 -16 0 8 -44 41 -55 41 -3 0 2 -11 12
-25z"/>
<path d="M2015 4340 c-10 -11 -13 -20 -8 -20 13 0 38 29 31 35 -3 3 -13 -4
-23 -15z"/>
<path d="M2056 4344 c-4 -11 -2 -15 8 -11 8 3 17 1 19 -6 2 -7 7 -9 11 -6 10
9 -4 39 -19 39 -7 0 -16 -7 -19 -16z"/>
<path d="M2465 4351 c-6 -5 -19 -11 -30 -14 -16 -4 -14 -5 6 -6 16 -1 29 5 33
14 6 17 4 19 -9 6z"/>
<path d="M2544 4345 c-3 -8 -3 -19 1 -25 10 -16 35 7 28 26 -7 18 -22 18 -29
-1z"/>
<path d="M2826 4345 c-3 -9 0 -15 9 -15 8 0 15 7 15 15 0 8 -4 15 -9 15 -5 0
-11 -7 -15 -15z"/>
<path d="M3203 4345 c0 -8 4 -12 9 -9 4 3 8 9 8 15 0 5 -4 9 -8 9 -5 0 -9 -7
-9 -15z"/>
<path d="M1475 4335 c-26 -12 -27 -13 -8 -14 12 -1 25 4 28 10 4 6 13 8 19 6
7 -3 19 -1 27 4 23 15 -32 10 -66 -6z"/>
<path d="M2385 4340 c-3 -5 -1 -10 4 -10 6 0 11 5 11 10 0 6 -2 10 -4 10 -3 0
-8 -4 -11 -10z"/>
<path d="M2685 4340 c-27 -3 -45 -8 -40 -11 6 -3 35 -3 65 0 30 3 48 8 40 11
-8 3 -37 3 -65 0z"/>
<path d="M3475 4329 c-16 -11 -23 -19 -15 -19 16 1 56 27 49 34 -2 2 -17 -5
-34 -15z"/>
<path d="M3580 4346 c0 -2 7 -6 15 -10 8 -3 15 -1 15 4 0 6 -7 10 -15 10 -8 0
-15 -2 -15 -4z"/>
<path d="M1570 4329 c0 -5 5 -7 10 -4 6 3 10 8 10 11 0 2 -4 4 -10 4 -5 0 -10
-5 -10 -11z"/>
<path d="M2487 4333 c-14 -13 -6 -23 18 -23 18 0 23 4 19 15 -6 16 -26 20 -37
8z"/>
<path d="M2596 4325 c-4 -11 2 -15 22 -14 17 1 20 3 9 6 -9 2 -15 9 -12 14 4
5 2 9 -3 9 -6 0 -12 -7 -16 -15z"/>
<path d="M3540 4330 c0 -5 5 -10 11 -10 5 0 7 5 4 10 -3 6 -8 10 -11 10 -2 0
-4 -4 -4 -10z"/>
<path d="M3644 4326 c16 -9 31 -14 34 -11 8 8 0 13 -33 20 l-30 7 29 -16z"/>
<path d="M1416 4292 c-3 -6 -1 -14 5 -17 14 -9 20 -2 10 14 -6 8 -11 9 -15 3z"/>
<path d="M3676 4292 c-2 -4 4 -9 15 -9 11 -1 17 2 14 8 -7 11 -22 12 -29 1z"/>
<path d="M3730 4285 c0 -8 9 -15 20 -15 24 0 27 15 4 24 -22 9 -24 8 -24 -9z"/>
<path d="M1333 4282 c-8 -5 4 -13 33 -21 25 -7 48 -11 51 -7 3 3 -8 9 -25 12
-18 4 -29 10 -26 15 6 11 -17 12 -33 1z"/>
<path d="M1615 4255 c-202 -44 -379 -164 -493 -334 -46 -69 -86 -187 -101
-294 -14 -100 -15 -1718 -1 -1800 25 -155 67 -263 146 -373 85 -120 202 -199
384 -260 l85 -29 915 0 915 0 85 22 c221 59 379 179 463 354 25 52 56 135 68
184 23 90 23 91 26 965 3 587 0 898 -7 945 -27 174 -89 309 -190 412 -71 72
-127 110 -231 155 -161 69 -149 68 -1128 67 -682 0 -889 -3 -936 -14z m1798
-12 c-7 -32 -174 -361 -191 -377 -12 -11 -22 -17 -22 -13 0 3 29 63 63 134 35
70 79 161 97 201 18 40 38 71 44 69 6 -3 10 -9 9 -14z m-1582 -199 c55 -114
98 -209 96 -211 -8 -7 -58 79 -136 236 -45 88 -81 165 -81 171 0 39 34 -17
121 -196z m778 174 c112 -68 477 -314 541 -365 187 -148 445 -493 516 -689 54
-148 20 -290 -142 -586 -246 -453 -288 -516 -515 -780 -122 -141 -427 -448
-446 -448 -47 -1 -564 568 -709 780 -55 80 -204 348 -300 539 -103 204 -130
292 -121 390 10 113 98 280 263 497 102 136 194 230 317 325 131 103 525 359
550 359 5 0 26 -10 46 -22z m-711 0 c35 -35 -1 -77 -54 -64 -18 5 -24 13 -24
35 0 16 6 32 13 34 22 10 53 7 65 -5z m106 -7 c13 -11 17 -11 22 3 5 12 20 16
68 16 l61 0 2 -40 c2 -29 -1 -40 -12 -40 -7 0 -17 5 -20 10 -10 16 -25 12 -19
-5 8 -20 42 -29 59 -15 8 7 12 24 10 43 -2 17 1 34 7 38 15 9 58 -11 58 -26 0
-7 7 -18 15 -25 22 -18 19 -50 -4 -50 -11 0 -23 5 -26 11 -5 7 -15 3 -30 -11
-12 -12 -35 -22 -51 -24 -23 -3 -31 2 -41 23 l-11 26 -1 -30 c-1 -17 -7 -37
-13 -44 -11 -11 -9 -11 9 -2 12 6 37 11 55 11 18 0 41 7 51 14 10 8 27 12 38
9 19 -5 19 -6 2 -23 -10 -10 -21 -16 -24 -14 -4 2 -14 -5 -24 -16 -15 -17 -19
-17 -32 -5 -11 11 -19 12 -34 5 -10 -6 -19 -7 -19 -3 0 4 -4 3 -8 -2 -9 -13
-62 -37 -62 -28 0 3 8 12 17 19 10 7 15 16 11 19 -14 14 -39 -5 -56 -42 -16
-37 -16 -37 -20 -12 -3 27 -37 67 -48 57 -3 -4 2 -20 10 -37 9 -16 16 -36 15
-43 0 -11 -2 -11 -6 0 -3 7 -23 24 -44 38 -48 30 -55 74 -14 92 38 17 42 16
61 -23 18 -38 29 -38 36 0 4 21 2 24 -12 20 -12 -4 -25 3 -38 20 -17 21 -21
23 -32 10 -7 -8 -18 -15 -24 -15 -6 0 2 11 18 23 23 18 28 29 24 50 -4 19 0
27 11 29 27 6 49 2 65 -11z m374 7 c32 -32 -2 -79 -43 -60 -39 18 -27 72 15
72 9 0 21 -5 28 -12z m422 -9 c14 -26 -3 -49 -35 -49 -12 0 -28 6 -34 14 -18
21 3 56 34 56 14 0 29 -8 35 -21z m395 -49 l69 -69 -30 -23 c-16 -13 -48 -40
-71 -61 l-42 -39 -53 38 c-28 21 -59 39 -67 41 -16 2 -51 39 -51 52 0 4 21 22
48 39 26 17 63 44 82 61 19 17 37 30 40 31 3 0 37 -31 75 -70z m98 48 c22 -34
-41 -66 -71 -36 -16 16 -15 23 4 43 20 19 53 16 67 -7z m-353 -7 c0 -11 -9
-22 -19 -26 -11 -3 -18 -12 -15 -19 7 -17 -22 -40 -41 -32 -19 7 -19 32 0 40
8 3 15 14 15 24 0 25 8 32 37 32 16 0 23 -6 23 -19z m-650 -2 c0 -5 -6 -7 -12
-3 -9 5 -9 2 1 -9 15 -19 1 -23 -17 -5 -18 18 -15 28 8 28 11 0 20 -5 20 -11z
m-674 -18 c-3 -5 3 -11 13 -14 12 -3 22 1 25 9 8 21 37 17 34 -3 -2 -10 2 -17
7 -16 6 1 10 -14 8 -35 -2 -36 -2 -36 6 -7 l9 30 1 -37 c0 -20 7 -41 14 -45
17 -10 28 -51 16 -59 -5 -3 -6 -10 -3 -16 4 -7 2 -8 -5 -4 -6 4 -9 12 -6 17 4
5 1 9 -4 9 -6 0 -11 -4 -11 -9 0 -6 -9 -8 -20 -6 -11 2 -18 0 -15 -5 3 -5 1
-11 -4 -14 -5 -4 -12 -2 -16 4 -4 6 -11 8 -16 5 -5 -3 -6 0 -4 7 4 9 -4 14
-22 16 -15 1 -36 11 -48 22 -12 11 -27 20 -34 20 -7 0 -22 5 -34 12 -12 7 -29
14 -37 15 -8 2 -20 5 -27 6 -7 2 -16 7 -20 12 -4 4 -2 5 5 1 7 -4 12 -2 13 6
0 10 2 10 6 1 2 -7 11 -13 19 -13 9 0 12 5 9 10 -10 16 14 40 32 33 11 -4 14
-2 9 5 -4 7 4 14 21 17 15 4 39 13 53 20 30 17 33 18 26 6z m1909 -22 c4 -6
12 -8 19 -6 17 7 79 -25 84 -43 4 -11 -2 -9 -19 5 l-24 20 16 -20 c17 -21 22
-55 7 -55 -4 0 -8 -9 -8 -19 0 -11 -4 -22 -8 -25 -4 -2 -7 17 -6 44 1 27 -2
48 -5 45 -4 -2 -23 9 -42 26 -38 33 -64 36 -97 13 -12 -8 -22 -11 -22 -5 0 26
91 44 105 20z m-17 -21 c18 -18 14 -26 -12 -21 -14 3 -25 -1 -29 -10 -4 -12 2
-13 41 -5 40 7 49 6 60 -9 15 -20 8 -61 -14 -82 -34 -36 -144 5 -144 53 1 19
2 18 17 -6 19 -31 53 -48 91 -47 25 0 25 1 7 10 -17 8 -17 9 5 4 23 -4 26 -1
27 28 2 27 1 29 -7 11 -6 -17 -14 -20 -36 -16 -20 4 -25 2 -19 -8 5 -8 2 -11
-11 -8 -11 2 -19 8 -19 15 0 6 -4 15 -9 20 -5 5 -6 3 -2 -4 4 -7 3 -13 -2 -13
-5 0 -14 12 -21 27 -12 25 -10 30 14 50 29 26 45 29 63 11z m157 -32 c0 -15
-4 -21 -9 -16 -5 5 -6 16 -3 24 9 22 12 20 12 -8z m-1928 -28 c-3 -8 -6 -5 -6
6 -1 11 2 17 5 13 3 -3 4 -12 1 -19z m1662 -28 c9 -27 8 -30 -10 -30 -10 0
-19 5 -19 11 0 5 4 8 9 5 4 -3 6 6 3 19 -6 35 4 31 17 -5z m-1879 -31 c72 -38
103 -69 90 -89 -8 -12 -10 -11 -10 7 0 15 -13 30 -43 48 -54 31 -61 31 -43 3
16 -27 32 -78 40 -133 6 -35 5 -38 -7 -23 -8 10 -17 14 -23 8 -5 -4 -22 -10
-39 -12 -25 -3 -22 -6 25 -16 l55 -11 -55 4 c-30 3 -66 8 -80 11 -19 4 -21 3
-10 -5 8 -5 46 -17 85 -26 96 -23 102 -25 88 -33 -6 -4 -13 -21 -16 -37 l-4
-30 -2 33 c0 18 -5 31 -11 27 -5 -3 -7 -12 -4 -19 3 -9 -4 -15 -20 -18 -18 -4
-26 -1 -26 8 0 20 -27 17 -39 -3 -6 -10 -11 -13 -11 -8 0 6 -5 3 -10 -5 -7
-11 -8 -6 -4 16 6 33 -12 57 -26 34 -6 -9 -13 -5 -25 14 -20 30 -35 26 -36
-12 0 -15 -3 -21 -6 -14 -3 7 -2 33 2 58 4 31 11 44 23 45 15 1 15 2 0 6 -10
2 -18 9 -18 15 0 6 -8 0 -18 -12 -18 -22 -18 -22 -14 20 4 36 1 42 -18 47 -19
5 -21 8 -8 17 16 12 31 56 18 56 -4 0 -15 -10 -23 -22 -9 -13 -16 -18 -16 -12
-2 32 97 93 153 94 15 0 54 -14 86 -31z m2249 -33 c25 -25 42 -48 40 -51 -3
-3 -27 2 -54 12 l-49 16 -33 -39 c-18 -21 -45 -55 -59 -76 l-25 -36 19 -39
c27 -51 52 -113 47 -113 -2 0 -16 20 -31 45 -25 43 -42 60 -31 31 3 -8 -16 8
-42 35 l-48 50 -56 -7 c-76 -9 -87 1 -87 80 0 71 10 86 58 86 35 0 77 -34 112
-88 15 -23 16 -23 88 67 82 103 78 102 151 27z m-2028 -23 c13 -16 12 -17 -3
-4 -10 7 -18 15 -18 17 0 8 8 3 21 -13z m-16 -33 c-3 -5 -12 -10 -18 -10 -7 0
-6 4 3 10 19 12 23 12 15 0z m-407 -58 c4 -27 -8 -28 -30 -3 -12 14 -13 21 -5
25 20 8 32 0 35 -22z m376 -57 c-1 -5 -16 -18 -35 -28 -24 -13 -28 -14 -15 -3
11 9 23 16 28 16 15 0 8 19 -9 24 -11 3 -7 4 7 3 14 -1 25 -6 24 -12z m-57 -1
c-3 -3 -12 -4 -19 -1 -8 3 -5 6 6 6 11 1 17 -2 13 -5z m2223 -54 c17 -12 37
-34 44 -49 13 -25 13 -27 -6 -28 -28 -3 -29 -4 -13 -48 21 -58 17 -124 -6
-109 -5 3 -6 11 -2 17 4 7 0 6 -10 -2 -9 -7 -18 -21 -18 -30 -1 -9 -5 11 -10
43 -5 33 -17 75 -27 95 -17 32 -23 36 -60 36 l-40 0 20 28 c11 15 29 27 40 27
12 0 18 3 15 7 -4 3 -21 6 -38 5 -33 -1 -66 -24 -80 -57 -7 -18 -8 -17 -8 6
-1 28 29 61 69 78 36 15 94 7 130 -19z m-315 -120 c1 -67 -2 -91 -12 -95 -8
-2 -11 0 -8 5 3 6 -3 10 -15 10 -40 0 -54 106 -25 177 l16 37 22 -22 c19 -20
22 -33 22 -112z m-2144 -27 c31 -32 36 -40 17 -29 -41 26 -78 81 -77 113 1 27
1 27 9 -6 4 -18 28 -53 51 -78z m-91 59 c0 15 5 30 12 34 7 4 8 3 4 -4 -9 -15
9 -49 47 -89 40 -43 28 -53 -23 -19 -42 27 -80 79 -80 106 1 8 9 -1 20 -20 19
-34 19 -35 20 -8z m-118 1 c9 -10 19 -29 23 -43 7 -21 3 -20 -27 13 -24 25
-41 35 -52 31 -19 -7 -15 -31 3 -26 7 1 10 -2 6 -8 -3 -6 -10 -8 -15 -5 -5 3
-12 1 -15 -5 -4 -6 -1 -9 7 -8 7 2 12 -3 10 -11 -2 -10 5 -12 23 -9 14 3 24 3
21 1 -3 -3 9 -23 25 -46 34 -47 39 -73 6 -37 -12 14 -19 21 -16 15 3 -5 9 -19
13 -29 5 -14 3 -16 -6 -9 -9 6 -21 0 -40 -19 -15 -16 -29 -32 -30 -36 -4 -10
-17 -5 -60 24 -34 21 -38 29 -38 65 0 29 7 47 24 64 22 22 22 25 7 40 -15 16
-14 17 7 5 13 -6 25 -10 26 -8 1 2 10 15 19 31 20 31 56 36 79 10z m127 -108
c28 -30 51 -58 51 -64 0 -54 -114 63 -133 137 -10 43 5 57 18 18 7 -21 36 -61
64 -91z m2359 20 c-3 -3 -9 2 -12 12 -6 14 -5 15 5 6 7 -7 10 -15 7 -18z
m-2443 -5 c14 -15 15 -20 4 -20 -15 1 -49 23 -49 34 0 13 28 5 45 -14z m2446
-155 c36 -19 76 -19 113 0 36 19 42 19 26 0 -22 -26 -83 -39 -124 -25 -45 14
-92 53 -111 91 -24 46 -17 45 26 -5 23 -26 54 -53 70 -61z m365 90 c18 -14 17
-14 -11 -5 -16 5 -39 11 -50 13 -13 3 -9 5 11 6 16 0 39 -6 50 -14z m10 -77
c16 -19 16 -20 1 -9 -9 7 -32 17 -50 21 l-32 8 31 1 c21 1 37 -6 50 -21z
m-2556 -133 c-10 -13 -50 -15 -241 -15 -197 0 -229 2 -229 15 0 13 33 15 241
15 214 0 240 -2 229 -15z m2598 3 c-4 -10 -60 -13 -238 -13 -178 0 -234 3
-237 13 -4 9 48 12 237 12 189 0 241 -3 238 -12z m-2993 -103 c0 -24 -5 -31
-24 -33 -31 -5 -45 11 -37 43 5 21 12 26 34 23 23 -2 27 -8 27 -33z m309 14
c25 -36 -5 -70 -45 -49 -21 12 -26 56 -6 63 24 10 36 7 51 -14z m2351 -14 c0
-27 -3 -30 -30 -30 -24 0 -31 5 -33 24 -4 27 13 42 43 39 15 -2 20 -11 20 -33z
m303 23 c15 -15 15 -26 0 -25 -33 1 -49 -4 -43 -13 4 -6 16 -8 27 -4 15 4 19
2 16 -7 -8 -25 -37 -22 -49 5 -19 41 19 74 49 44z m-124 -49 c32 -25 34 -59 4
-85 -12 -10 -18 -13 -14 -6 4 6 2 12 -3 12 -6 0 -11 -8 -11 -17 0 -15 -2 -16
-10 -3 -5 8 -10 11 -10 6 0 -5 -8 -2 -17 5 -15 12 -16 12 -10 -5 6 -16 5 -17
-7 -7 -9 8 -29 10 -53 6 -35 -6 -36 -5 -20 9 11 8 25 12 33 9 8 -3 14 1 14 10
0 8 7 18 16 21 25 10 34 7 28 -9 -5 -11 -2 -13 10 -9 30 11 14 39 -22 39 -37
0 -38 2 -15 27 21 24 54 23 87 -3z m-2669 -5 c35 -9 59 -52 56 -99 -2 -43 -32
-81 -54 -69 -9 6 -9 4 1 -8 10 -13 10 -17 -4 -22 -48 -18 -63 14 -15 34 26 10
29 16 25 46 -2 20 -13 45 -24 56 -24 26 -26 17 -4 -17 28 -43 -6 -86 -56 -70
-28 9 -27 59 2 79 12 9 16 16 9 16 -7 0 -26 -11 -43 -25 -16 -14 -25 -25 -19
-25 6 0 11 -9 11 -21 0 -15 -5 -19 -15 -15 -10 3 -15 -1 -16 -12 -1 -34 -17
23 -17 61 0 26 7 44 25 62 27 26 78 46 101 39 8 -2 24 -7 37 -10z m2721 -92
c6 -4 14 -16 18 -26 6 -19 6 -19 -12 -3 -10 9 -24 17 -31 17 -7 0 -9 5 -6 10
7 12 16 12 31 2z m-36 -32 c0 -5 -7 -10 -16 -10 -8 0 -12 5 -9 10 3 6 10 10
16 10 5 0 9 -4 9 -10z m-2754 -83 c-2 -7 -5 -4 -5 6 -1 9 -9 17 -18 17 -15 0
-16 2 -3 10 17 10 35 -12 26 -33z m-19 7 c-3 -3 -12 -4 -19 -1 -8 3 -5 6 6 6
11 1 17 -2 13 -5z m-82 -74 c19 -21 14 -50 -8 -50 -10 0 -13 8 -9 26 4 25 3
26 -22 22 -25 -5 -33 1 -19 15 12 13 40 7 58 -13z m305 10 c0 -20 -5 -23 -38
-24 -35 -1 -39 3 -20 22 15 15 58 16 58 2z m2364 -12 c14 -23 -2 -52 -31 -56
-27 -4 -42 17 -36 51 5 23 10 28 31 25 14 -2 30 -11 36 -20z m304 6 c6 -11 5
-28 -2 -46 -8 -23 -16 -28 -36 -26 -31 4 -50 49 -30 72 16 21 57 20 68 0z
m-2719 -89 c50 -24 53 -27 39 -42 -10 -9 -21 -12 -29 -7 -7 4 -43 8 -80 8 -56
1 -65 -1 -56 -13 10 -11 8 -13 -12 -6 -15 5 -21 4 -17 -3 4 -7 -14 -11 -54
-10 -66 1 -83 -10 -95 -65 -4 -16 -9 -26 -12 -23 -10 10 20 79 50 113 66 75
168 93 266 48z m2601 2 c23 -12 54 -38 69 -57 25 -34 25 -34 -21 8 -26 23 -49
42 -52 42 -2 0 -20 -7 -41 -15 -29 -13 -34 -19 -26 -29 9 -11 6 -15 -16 -21
-15 -3 -23 -9 -17 -13 14 -10 17 -35 3 -26 -9 5 -10 2 -6 -10 5 -14 3 -16 -13
-12 -11 3 -29 9 -41 12 -23 7 -38 -9 -69 -74 -25 -53 -21 -82 5 -32 39 78 77
97 125 63 14 -10 26 -16 28 -15 2 2 18 -11 35 -29 18 -18 26 -29 20 -25 -20
11 -15 -4 12 -40 28 -36 33 -53 11 -35 -11 10 -15 8 -18 -6 -3 -16 -7 -15 -31
9 -15 15 -27 22 -27 15 0 -21 28 -54 66 -78 47 -29 27 -43 -42 -30 -61 12 -70
6 -15 -9 25 -6 41 -17 41 -26 0 -11 -4 -12 -19 -4 -29 15 -48 12 -26 -4 31
-23 26 -63 -7 -57 -5 0 -8 -6 -8 -14 0 -23 -45 -18 -76 8 l-27 23 33 27 c40
34 25 35 -20 2 -50 -37 -61 -30 -16 10 22 19 49 36 60 36 17 1 18 2 4 6 -10 2
-36 -6 -58 -18 -22 -12 -42 -20 -46 -17 -12 13 17 46 59 68 45 24 45 24 32 54
-8 17 -16 39 -19 48 -5 16 -7 16 -36 1 -49 -24 -80 -6 -80 47 0 22 7 58 16 80
15 36 18 39 38 28 17 -9 16 -6 -6 17 -34 34 -35 52 -5 66 12 6 38 19 57 30 48
26 116 25 170 -4z m-2587 -121 c18 -7 45 -27 59 -44 29 -35 73 -121 65 -128
-3 -3 -8 4 -12 15 -8 27 -16 26 -51 -4 -25 -22 -26 -28 -4 -27 3 0 11 -6 18
-14 8 -9 9 -14 2 -14 -6 0 -9 -4 -6 -9 4 -5 -3 -7 -14 -4 -11 3 -20 12 -20 19
0 8 -5 14 -11 14 -6 0 -9 7 -5 15 8 22 -7 18 -22 -5 -13 -22 -52 -26 -83 -10
-30 16 -52 66 -39 90 8 16 8 18 -4 14 -10 -4 -17 3 -22 20 -3 14 -11 23 -16
20 -6 -4 -6 1 1 13 13 25 67 52 104 53 15 0 42 -6 60 -14z m2656 -115 c11 -27
21 -54 21 -59 0 -5 7 -15 15 -22 8 -7 15 -17 15 -23 0 -5 -9 -2 -20 8 -11 10
-20 23 -20 29 0 6 -11 35 -25 64 -13 28 -20 52 -16 52 5 0 18 -22 30 -49z
m-36 -23 c9 -18 26 -55 37 -83 17 -41 18 -47 4 -33 -19 19 -76 148 -65 148 4
0 15 -15 24 -32z m-334 -51 l31 -13 -31 -23 c-24 -18 -33 -20 -45 -11 -17 15
-18 32 -2 48 15 15 9 15 47 -1z m-2375 -46 c9 -16 13 -31 10 -34 -3 -3 8 -13
24 -21 44 -23 49 -38 8 -21 -42 18 -149 20 -179 3 -19 -10 -20 -9 -9 4 7 9 34
21 59 28 35 8 43 14 33 21 -8 5 -10 9 -4 9 7 0 14 9 17 20 7 28 24 25 41 -9z
m2573 -212 c78 -38 164 -75 192 -82 49 -11 69 -27 35 -27 -46 0 -153 45 -369
155 -163 83 -241 127 -244 140 -2 14 25 3 120 -49 68 -37 188 -98 266 -137z
m-2209 179 c-6 -18 -470 -254 -538 -274 -30 -9 -61 -19 -67 -21 -7 -3 -13 2
-13 10 0 11 13 18 38 22 39 6 260 111 447 213 112 61 140 72 133 50z m-371
-53 c40 -17 53 -30 53 -57 0 -13 -8 -18 -26 -18 -14 0 -23 -4 -19 -10 4 -6 -7
-10 -27 -10 -18 0 -44 -3 -57 -7 -18 -5 -22 -3 -16 7 6 10 2 11 -18 6 -24 -6
-25 -4 -20 27 6 40 27 65 62 70 14 2 27 5 29 6 1 0 19 -6 39 -14z m473 -195
c0 -6 -10 -52 -21 -103 -12 -50 -22 -98 -22 -104 -1 -18 -2 -18 -102 35 -52
28 -95 57 -101 71 -8 16 -13 19 -18 9 -3 -7 -3 3 0 22 4 27 3 32 -6 20 -8 -12
-9 -9 -4 11 3 15 1 30 -5 33 -18 12 -12 23 18 36 16 6 41 24 56 40 l28 29 88
-45 c49 -24 89 -49 89 -54z m1878 36 c28 -15 31 -19 21 -37 -5 -11 -11 -33
-11 -50 -1 -16 -5 -29 -9 -29 -4 0 -10 -9 -14 -19 -5 -16 -204 -137 -210 -128
-11 14 -35 148 -35 189 l1 53 87 41 87 42 25 -23 c14 -13 40 -30 58 -39z
m-2338 -114 c19 -9 37 -26 39 -37 3 -17 -1 -16 -28 10 -27 25 -39 29 -84 29
-64 0 -109 -26 -143 -81 -15 -25 -23 -32 -24 -20 0 27 26 73 56 96 35 27 133
29 184 3z m2701 -33 c-5 -13 -10 -19 -10 -12 -1 15 10 45 15 40 3 -2 0 -15 -5
-28z m-97 -27 c5 -9 -14 -13 -83 -15 -37 -2 -47 -5 -43 -16 3 -8 -2 -19 -10
-25 -15 -11 -18 -17 -18 -37 0 -5 -3 -8 -7 -6 -5 3 -8 -8 -8 -24 0 -23 6 -31
23 -36 17 -4 20 -8 12 -18 -8 -9 -7 -14 2 -18 7 -3 3 -6 -9 -6 -13 -1 -32 -10
-43 -21 -19 -19 -19 -19 3 -35 12 -8 33 -15 47 -15 14 -1 36 -7 48 -14 21 -11
12 -14 -93 -25 -108 -12 -179 -26 -230 -46 -43 -17 2 16 66 48 55 27 64 35 52
46 -11 10 -11 16 -2 27 10 12 9 13 -5 8 -22 -8 -21 19 1 42 9 9 19 25 20 36 3
21 61 114 87 141 14 13 35 17 101 17 46 0 86 -4 89 -8z m-2509 -62 l29 -30
-31 0 c-17 0 -48 -6 -70 -14 -39 -14 -40 -14 -56 14 -22 36 -21 39 6 50 47 19
92 12 122 -20z m71 -75 c28 -14 63 -38 79 -55 l29 -30 -59 0 c-32 0 -56 -3
-52 -6 3 -3 46 -12 94 -20 l88 -13 -87 3 c-71 3 -99 9 -150 33 -80 38 -103 59
-86 80 31 38 78 41 144 8z m1812 -45 c24 -78 12 -100 -55 -100 l-42 0 12 28
c18 41 60 112 66 112 4 0 12 -18 19 -40z m-1336 -76 c4 -22 -38 -33 -56 -14
-8 9 -7 11 4 10 37 -5 41 -1 25 30 -16 31 -42 43 -31 14 3 -8 2 -12 -4 -9 -9
6 -14 -8 -11 -27 0 -5 -4 -8 -10 -8 -13 0 -8 35 11 85 l11 30 29 -47 c16 -25
30 -54 32 -64z m2068 37 c14 -27 13 -29 -15 -23 -28 5 -27 4 -19 26 8 21 21
20 34 -3z m-2483 -51 c37 -6 69 -12 70 -14 2 -1 -4 -22 -11 -47 l-15 -44 6 43
c4 33 2 42 -10 42 -10 0 -17 -14 -21 -42 -4 -24 -14 -54 -22 -68 -11 -17 -13
-19 -9 -5 4 11 9 44 12 73 5 44 3 52 -11 52 -11 0 -16 -9 -16 -28 0 -16 -7
-51 -15 -78 -18 -61 -19 -57 5 -51 11 3 20 1 20 -4 0 -5 -10 -9 -23 -9 -33 0
-117 30 -117 41 0 6 8 5 19 -1 26 -13 30 -5 38 76 5 51 3 68 -8 75 -25 16 -29
10 -24 -38 l5 -48 -18 50 c-11 28 -22 58 -27 67 -6 15 1 14 49 -7 30 -13 86
-29 123 -35z m581 -73 c6 -5 12 -13 12 -18 0 -12 -61 -11 -80 1 -13 9 -13 12
3 25 19 13 40 11 65 -8z m-232 -23 c32 -33 46 -63 24 -49 -16 10 -11 -1 7 -16
15 -12 16 -12 8 1 -5 8 12 -4 37 -26 57 -52 75 -62 139 -74 34 -7 57 -6 70 1
27 14 36 5 31 -31 -4 -28 -32 -45 -32 -19 0 6 -6 9 -14 6 -8 -3 -17 0 -19 7
-3 7 -26 16 -51 19 -63 9 -119 40 -182 99 -40 38 -58 48 -73 43 -27 -8 -27
-35 -1 -42 23 -6 26 -25 7 -42 -11 -8 -17 -5 -27 14 -7 14 -17 25 -22 25 -5 0
-6 6 -2 13 5 9 4 9 -6 0 -11 -10 -10 -17 4 -37 9 -15 12 -26 7 -26 -30 0 -40
74 -16 120 30 59 65 63 111 14z m1312 -21 c4 -26 30 -31 38 -8 10 24 33 18 27
-7 -4 -22 -4 -23 11 -4 20 25 21 7 1 -20 -8 -10 -15 -26 -15 -36 0 -12 -13
-18 -52 -23 -29 -4 -78 -13 -108 -20 -30 -8 -55 -13 -55 -12 -19 33 -61 77
-74 77 -12 0 -13 2 -3 9 7 4 24 6 38 3 15 -3 24 0 24 8 0 10 3 10 15 0 21 -17
40 -7 40 21 0 20 6 25 35 30 56 11 75 6 78 -18z m112 17 c0 -5 -4 -10 -10 -10
-5 0 -10 5 -10 10 0 6 5 10 10 10 6 0 10 -4 10 -10z m363 -40 c3 -13 0 -20 -9
-20 -8 0 -14 -5 -14 -11 0 -7 10 -9 27 -4 36 9 37 10 24 34 -11 19 -9 20 21
14 42 -8 40 -6 29 -35 -7 -18 -6 -31 3 -44 7 -11 21 -32 32 -48 l18 -29 -28 7
-28 7 21 -27 c12 -15 21 -31 21 -35 0 -15 -22 -10 -43 9 -19 16 -20 16 -8 -5
15 -29 14 -54 -2 -47 -7 2 -23 -8 -35 -23 -27 -35 -59 -36 -100 -1 -21 18 -27
29 -21 39 14 23 10 30 -10 19 -36 -19 -42 -12 -25 28 9 20 16 45 16 56 -1 29
49 118 64 112 7 -3 15 2 18 10 8 20 23 17 29 -6z m-2290 -54 c46 -20 55 -28
59 -54 l4 -31 -34 15 c-19 8 -37 12 -40 10 -5 -6 104 -56 120 -56 7 0 6 -5 -1
-13 -6 -8 -7 -17 -3 -22 6 -7 -21 -3 -65 11 -10 3 0 -5 22 -17 l40 -23 -37
-11 c-33 -9 -36 -12 -20 -22 14 -10 11 -11 -13 -2 -52 18 -205 110 -200 120 4
5 -1 6 -11 2 -14 -5 -15 -3 -4 18 7 13 13 36 12 51 -1 33 8 34 68 7 38 -17 42
-18 28 -3 -16 16 -16 18 0 30 21 17 13 18 75 -10z m1892 -107 c7 -69 6 -72
-20 -95 -24 -20 -26 -28 -20 -63 l7 -41 -76 0 c-90 0 -92 5 -39 76 27 36 30
43 10 25 -23 -21 -29 -22 -60 -12 -35 12 -35 13 -39 78 -2 44 1 67 9 70 21 8
157 31 189 32 l32 1 7 -71z m93 46 c-12 -27 -28 -34 -28 -12 0 14 20 37 32 37
4 0 2 -11 -4 -25z m-1436 -12 c17 -21 25 -193 8 -193 -5 0 -10 -8 -10 -17 0
-14 -2 -15 -9 -4 -7 11 -11 10 -20 -5 -8 -14 -11 -15 -11 -4 0 8 -9 -3 -20
-25 -11 -22 -17 -29 -13 -15 3 14 12 48 19 75 20 74 18 100 -11 119 -32 21
-32 39 1 65 33 26 46 26 66 4z m384 -18 c11 -8 14 -15 7 -15 -7 0 -13 -8 -14
-17 0 -11 -3 -13 -6 -6 -3 8 -14 11 -29 7 -29 -7 -34 19 -6 35 23 14 25 13 48
-4z m612 3 c7 -7 12 -20 12 -31 0 -16 -5 -18 -32 -12 -43 9 -54 20 -38 40 15
18 41 20 58 3z m-886 -14 c7 -6 -1 -36 -39 -163 -17 -55 -28 -80 -35 -73 -9 9
6 104 33 205 9 33 26 47 41 31z m1478 -58 c0 -8 12 -28 26 -43 36 -39 74 -88
74 -98 0 -4 -6 -5 -14 -2 -8 3 -17 1 -19 -6 -3 -9 -8 -9 -20 1 -9 8 -20 11
-25 8 -6 -3 -15 1 -22 10 -7 8 -19 13 -26 10 -15 -6 -74 46 -74 66 0 13 75 68
92 68 4 0 8 -7 8 -14z m-710 -16 c28 -28 10 -69 -32 -70 -18 0 -48 25 -48 41
0 12 37 49 50 49 6 0 19 -9 30 -20z m-410 -20 c-10 -7 -11 -10 -2 -10 6 0 12
-5 12 -11 0 -7 -9 -9 -23 -5 -24 6 -27 3 -55 -64 l-11 -25 0 28 c-1 38 14 64
52 87 30 19 56 18 27 0z m-550 -20 c-23 -33 -32 -40 -57 -45 -10 -2 -27 -7
-38 -11 -11 -4 7 13 40 39 71 54 84 58 55 17z m-360 10 c0 -5 -7 -10 -15 -10
-8 0 -15 5 -15 10 0 6 7 10 15 10 8 0 15 -4 15 -10z m882 -55 c-2 -14 -9 -25
-14 -25 -5 0 -7 3 -5 8 2 4 7 15 10 25 9 25 15 21 9 -8z m926 -10 c-3 -3 -9 2
-12 12 -6 14 -5 15 5 6 7 -7 10 -15 7 -18z m-788 -10 c11 -13 10 -14 -4 -9 -9
3 -23 1 -31 -6 -18 -15 -20 1 -3 18 16 16 23 15 38 -3z m226 0 c18 -13 16 -14
-23 -15 -48 0 -75 -8 -67 -21 3 -5 -2 -6 -10 -3 -22 8 -20 12 17 34 38 24 57
25 83 5z m172 -11 c12 -8 22 -20 22 -27 0 -8 -3 -8 -12 1 -7 7 -23 12 -37 12
-38 0 -72 11 -65 21 9 15 68 10 92 -7z m-1098 -53 c0 -5 -9 -7 -20 -4 -11 3
-20 7 -20 9 0 2 9 4 20 4 11 0 20 -4 20 -9z"/>
<path d="M2526 4183 c-16 -8 -111 -68 -212 -133 -330 -212 -454 -321 -617
-542 -129 -174 -206 -310 -226 -399 -14 -62 -4 -90 52 -149 46 -49 48 -53 37
-81 -13 -30 -35 -30 -27 1 5 19 -47 79 -59 67 -19 -19 64 -201 231 -507 149
-273 204 -361 305 -485 167 -204 530 -595 553 -595 27 0 374 375 550 595 103
128 142 189 267 415 132 238 211 396 244 488 29 83 32 102 13 102 -13 0 -39
-42 -51 -84 -5 -15 -9 -16 -21 -6 -21 17 -19 48 5 62 11 7 20 16 20 19 0 4 16
23 36 43 34 34 36 40 32 84 -14 139 -236 474 -451 679 -72 68 -155 130 -315
236 -195 130 -321 208 -333 207 -2 -1 -17 -8 -33 -17z m259 -133 c255 -165
347 -234 442 -333 60 -62 82 -92 85 -118 3 -19 4 -37 1 -41 -6 -11 -48 8 -46
21 2 6 -3 8 -10 5 -7 -2 -22 5 -32 16 -17 18 -17 23 -5 31 12 9 10 10 -7 6
-12 -3 -24 0 -27 7 -2 6 -5 5 -5 -4 -1 -18 -41 -46 -41 -29 0 6 -7 3 -15 -5
-13 -13 -20 -13 -35 -4 -22 14 -7 30 18 20 11 -4 13 -1 8 7 -5 7 -17 10 -28 8
-11 -3 -17 -3 -14 0 3 4 -5 20 -18 38 -13 17 -30 50 -37 73 -15 51 -36 59 -86
34 -43 -22 -69 -49 -74 -75 -4 -17 -24 -25 -24 -9 0 4 -10 17 -22 30 -13 12
-23 27 -23 32 0 6 -6 10 -13 10 -15 0 -41 65 -32 80 3 5 1 10 -4 10 -6 0 -11
-6 -11 -12 0 -7 -11 8 -25 34 -14 26 -25 54 -25 63 0 9 -4 14 -8 11 -4 -3 -29
38 -55 90 -26 53 -52 94 -57 92 -5 -2 -39 -64 -75 -138 -37 -74 -73 -139 -81
-143 -8 -5 -12 -12 -9 -17 3 -5 1 -11 -5 -15 -5 -3 -10 -20 -10 -36 0 -25 -4
-30 -22 -27 -17 2 -27 -6 -45 -37 -22 -40 -39 -46 -37 -12 1 9 -3 17 -7 17 -5
0 -9 6 -9 14 0 7 -8 20 -17 27 -15 11 -16 11 -5 -1 6 -8 12 -20 12 -28 0 -9
-16 0 -40 22 -22 20 -48 36 -58 36 -16 0 -47 -52 -72 -122 -6 -19 -17 -28 -30
-28 -13 0 -18 4 -14 11 3 6 -9 3 -27 -6 -43 -22 -51 -30 -22 -21 18 6 22 4 17
-9 -7 -17 -26 -14 -75 10 -36 17 -46 8 -64 -52 -16 -54 -49 -103 -69 -103 -6
0 -29 -9 -49 -19 -22 -11 -37 -15 -34 -8 2 7 24 19 48 28 52 19 89 67 88 113
0 26 -2 28 -9 11 -6 -14 -9 -15 -10 -5 0 11 -7 8 -21 -10 -14 -16 -19 -33 -15
-51 4 -22 0 -28 -29 -42 -21 -10 -37 -12 -40 -7 -9 15 4 31 23 28 12 -2 17 4
17 22 1 14 5 33 11 42 12 22 114 128 122 128 4 0 12 10 17 22 18 42 180 163
460 344 141 91 186 114 206 103 10 -5 101 -63 204 -129z m-152 -82 c37 -79 67
-146 67 -149 0 -3 -10 -4 -22 -2 -16 3 -37 28 -65 76 l-43 72 0 -57 0 -57 -45
-7 c-25 -3 -45 -10 -45 -15 0 -5 -14 -9 -31 -9 -17 0 -29 4 -27 8 17 45 134
282 138 282 3 0 36 -64 73 -142z m-420 -236 c18 -19 25 -35 21 -46 -4 -10 -10
-13 -13 -8 -3 6 -13 12 -21 14 -8 2 -23 14 -32 28 l-18 25 0 -27 c0 -18 -5
-28 -15 -28 -15 0 -14 6 7 62 12 32 26 28 71 -20z m748 -3 c-12 -19 -25 -35
-31 -35 -5 -1 -13 -2 -16 -3 -4 0 0 -9 7 -18 11 -15 10 -14 -9 1 -12 11 -22
23 -22 27 0 4 16 24 35 45 44 47 68 35 36 -17z m-344 -76 c60 -148 155 -338
168 -338 14 0 49 66 95 180 51 127 55 134 72 117 13 -13 6 -39 -36 -134 -21
-50 -13 -48 15 2 24 42 34 48 42 28 3 -7 4 3 1 22 -2 19 14 -17 36 -80 40
-114 49 -149 30 -120 -9 13 -10 13 -10 0 -1 -11 -4 -10 -15 4 -10 13 -15 15
-15 6 0 -8 -12 -2 -30 15 l-30 29 0 -42 c0 -30 -4 -42 -15 -42 -9 0 -12 6 -8
17 4 11 -2 8 -18 -8 -13 -13 -24 -35 -24 -49 0 -14 -5 -24 -11 -23 -6 1 -11
-4 -11 -12 0 -10 5 -11 18 -5 14 8 16 6 11 -12 -5 -20 -9 -21 -105 -14 -141 9
-220 31 -173 49 17 7 86 132 86 155 -1 9 -12 37 -26 62 -22 40 -24 38 -7 -10
3 -8 -12 2 -33 23 -22 20 -43 37 -47 37 -4 0 -4 -18 -1 -39 6 -39 6 -40 -30
-47 -20 -3 -50 -4 -65 -1 -57 12 -44 -46 33 -145 25 -34 31 -49 23 -57 -8 -8
-8 -11 0 -11 7 0 15 4 18 10 4 6 14 5 28 -4 33 -21 55 -24 291 -41 121 -9 237
-20 258 -23 22 -4 -238 -8 -578 -9 -340 -2 -615 -1 -613 1 4 5 294 33 399 39
34 2 20 4 -38 5 l-92 2 14 23 c7 12 16 37 20 56 5 30 4 33 -14 28 -10 -3 -18
-1 -17 4 2 10 -35 69 -44 69 -4 0 -14 -11 -23 -25 -9 -13 -25 -29 -37 -36 -20
-10 -21 -9 -15 23 5 29 3 28 -19 -17 -14 -27 -23 -40 -19 -27 3 14 0 30 -9 40
-22 25 -69 122 -59 122 5 0 24 -28 42 -62 32 -60 33 -61 45 -37 7 13 25 63 41
111 l28 87 22 -25 c13 -13 32 -44 43 -69 11 -25 22 -45 25 -45 2 0 -14 43 -37
95 -31 73 -38 98 -29 107 17 17 24 7 83 -132 29 -69 59 -135 67 -148 14 -21
16 -21 33 -7 17 16 78 147 159 343 23 56 46 102 50 102 5 0 30 -53 57 -117z
m-242 87 c25 -9 25 -10 7 -28 -12 -12 -18 -31 -17 -50 1 -17 -2 -29 -6 -26 -4
2 -10 0 -13 -5 -3 -5 -15 -7 -26 -4 -17 5 -20 0 -21 -33 0 -35 -1 -36 -10 -16
-5 13 -6 36 -3 50 7 29 52 122 59 122 2 0 15 -4 30 -10z m427 -18 c33 -56 49
-119 39 -154 l-9 -33 -2 35 c-1 19 -5 44 -10 55 -7 15 -9 10 -10 -25 l-2 -45
-11 32 c-7 17 -16 35 -21 40 -6 5 -6 2 -1 -7 8 -13 7 -13 -8 -1 -16 12 -16 15
-2 25 14 10 15 15 1 40 -8 16 -20 33 -28 37 -9 6 -6 11 12 18 35 14 34 14 52
-17z m-777 -93 c-4 -5 -1 -9 5 -9 6 0 8 -4 5 -10 -11 -19 -25 -10 -23 14 1 14
6 22 10 20 5 -3 6 -10 3 -15z m-42 -60 c20 -17 37 -37 37 -45 0 -13 -2 -13
-16 0 -8 9 -22 16 -30 16 -8 0 -17 7 -20 15 -9 24 -20 18 -32 -17 -9 -30 -10
-30 -11 -8 -1 37 10 70 23 70 6 0 28 -14 49 -31z m791 15 c5 -14 4 -15 -9 -4
-17 14 -19 20 -6 20 5 0 12 -7 15 -16z m426 10 c0 -3 -7 -12 -15 -20 -8 -8
-19 -22 -23 -31 -10 -16 -62 -27 -62 -13 0 12 72 70 87 70 7 0 13 -3 13 -6z
m157 -26 c33 -57 35 -68 10 -78 -21 -8 -21 -9 6 -9 15 -1 27 -5 27 -10 0 -14
-69 5 -92 25 -11 11 -25 28 -30 39 -6 11 3 5 19 -12 36 -39 46 -41 34 -10 -6
17 -7 68 -2 85 3 7 11 -2 28 -30z m-150 -20 c-3 -8 -6 -5 -6 6 -1 11 2 17 5
13 3 -3 4 -12 1 -19z m-842 2 c-3 -5 -10 -10 -16 -10 -5 0 -9 5 -9 10 0 6 7
10 16 10 8 0 12 -4 9 -10z m14 -57 c11 3 19 1 15 -4 -13 -21 -64 -1 -64 25 0
5 6 2 14 -9 8 -12 20 -16 35 -12z m386 -3 c-3 -5 -12 -10 -18 -10 -7 0 -6 4 3
10 19 12 23 12 15 0z m681 -38 c67 -100 66 -98 45 -99 -18 -2 -42 37 -48 75
-1 8 -8 21 -16 30 -21 25 -29 42 -20 42 4 0 22 -22 39 -48z m-311 -23 c-10
-31 -58 -109 -68 -109 -4 0 2 19 14 43 40 77 68 113 54 66z m-1331 -9 c14 -5
26 -15 26 -22 0 -19 -56 -20 -71 -1 -12 14 -14 13 -20 -8 -6 -21 -7 -20 -8 9
-1 28 2 32 23 32 14 0 36 -4 50 -10z m1560 -15 c-24 -24 -74 -35 -74 -16 0 17
43 41 72 41 l27 0 -25 -25z m-1703 -38 c-6 -6 -11 -7 -11 -2 0 4 -10 0 -22
-11 l-22 -19 15 25 c9 14 19 31 24 39 6 11 10 10 17 -4 7 -11 6 -21 -1 -28z
m893 -69 c13 -21 14 -29 5 -21 -8 6 -23 26 -33 45 -13 21 -14 29 -5 21 8 -6
23 -26 33 -45z m-641 -4 c40 -20 80 -43 89 -51 9 -8 22 -12 29 -7 8 4 10 3 5
-4 -11 -19 -34 -14 -79 17 -23 15 -61 38 -84 50 -39 19 -53 31 -37 31 3 0 38
-16 77 -36z m1332 3 c-33 -18 -75 -42 -92 -55 -39 -28 -67 -29 -33 -1 33 27
151 88 170 88 8 0 -12 -14 -45 -32z m-1581 15 c2 -4 -11 -6 -30 -4 -19 2 -34
6 -34 8 0 8 59 4 64 -4z m1871 -12 c10 -11 16 -20 13 -20 -3 0 -13 9 -23 20
-10 11 -16 20 -13 20 3 0 13 -9 23 -20z m-1938 -76 c-3 -3 -12 -4 -19 -1 -8 3
-5 6 6 6 11 1 17 -2 13 -5z m28 -14 c3 -5 1 -10 -4 -10 -6 0 -11 5 -11 10 0 6
2 10 4 10 3 0 8 -4 11 -10z m67 -143 c26 -37 10 -61 -22 -32 -20 18 -20 18
-21 -16 -1 -20 -3 -26 -6 -14 -10 46 -13 48 -32 24 -28 -34 -36 -17 -16 33 25
64 34 72 58 51 10 -10 28 -31 39 -46z m1825 11 c15 -29 29 -56 31 -60 8 -18
-28 -6 -41 12 -14 20 -15 20 -23 -12 l-8 -33 -4 39 c-3 37 -4 38 -18 17 -15
-21 -44 -29 -44 -12 0 9 68 101 75 101 3 0 17 -24 32 -52z m-963 19 c24 -4 29
-17 15 -37 -8 -11 -12 -12 -16 -2 -2 6 -12 12 -21 12 -14 -1 -12 -4 6 -20 22
-18 25 -18 48 -4 29 20 30 15 5 -36 -22 -46 -25 -46 84 -25 85 17 388 31 345
17 -14 -5 -68 -12 -120 -16 -52 -4 -151 -18 -219 -31 -117 -23 -126 -24 -195
-9 -99 21 -305 44 -401 45 -67 1 -75 2 -50 11 40 13 361 2 442 -15 34 -8 60
-10 58 -7 -2 4 -30 12 -62 19 -89 20 -86 18 -78 48 6 24 5 25 -10 13 -14 -12
-18 -12 -25 0 -5 8 -12 11 -17 7 -4 -4 -2 -17 5 -27 10 -16 9 -18 -3 -14 -8 4
-15 10 -15 15 0 5 -11 7 -25 5 -14 -3 -25 0 -25 5 0 6 -4 7 -10 4 -5 -3 -10
-2 -10 4 0 15 18 23 25 11 3 -5 11 -10 18 -10 8 0 8 3 -1 12 -7 7 -12 15 -12
20 0 12 196 16 264 5z m-341 -33 c-8 -21 -23 -17 -23 6 0 13 5 18 14 14 8 -3
12 -12 9 -20z m-148 7 c3 -5 1 -12 -5 -16 -5 -3 -10 1 -10 9 0 18 6 21 15 7z
m685 -6 c0 -8 -4 -15 -9 -15 -5 0 -11 7 -15 15 -3 9 0 15 9 15 8 0 15 -7 15
-15z m-957 -132 c-3 -7 -15 -12 -27 -12 -16 1 -17 2 -3 6 9 2 17 14 17 26 0
17 2 19 9 8 5 -8 7 -20 4 -28z m1570 -4 c18 -1 18 -2 4 -6 -20 -5 -47 13 -47
31 0 6 5 3 11 -6 5 -10 20 -19 32 -19z m-1662 -20 c9 -17 17 -20 45 -16 41 7
54 -9 25 -29 -23 -17 -28 -53 -9 -72 17 -17 41 -15 34 3 -4 10 1 15 15 15 17
0 18 -3 9 -20 -6 -11 -15 -20 -20 -20 -5 0 -8 -26 -7 -57 2 -54 0 -58 -26 -71
-18 -9 -42 -11 -63 -8 -42 8 -46 24 -4 18 34 -5 38 3 14 29 -10 11 -12 19 -5
23 6 4 17 -7 26 -24 17 -33 39 -39 49 -14 10 26 -5 88 -26 102 -10 7 -25 28
-32 47 -8 18 -24 36 -35 40 -16 5 -21 15 -21 41 0 38 14 44 31 13z m584 -24
c80 -20 153 -38 163 -41 9 -3 6 1 -7 9 l-24 14 27 5 c14 3 26 1 26 -5 0 -6 4
-6 13 0 6 6 21 9 32 7 11 -1 40 -6 64 -9 27 -4 40 -10 32 -14 -9 -6 -7 -10 8
-14 12 -3 110 17 218 44 212 53 299 63 140 15 -53 -16 -97 -32 -97 -37 0 -5 6
-6 13 -4 6 2 46 6 87 9 l75 4 -205 -69 c-112 -38 -210 -74 -216 -81 -9 -9 -15
-88 -20 -261 -4 -136 -8 -246 -10 -244 -2 1 -4 70 -5 152 -3 171 -14 255 -20
140 -2 -38 -4 -88 -5 -110 -2 -22 -3 -157 -3 -299 -1 -143 -3 -257 -5 -255 -3
3 -15 306 -16 382 0 11 -4 15 -12 11 -8 -5 -9 -1 -4 12 5 13 4 16 -3 9 -6 -6
-12 -51 -14 -100 -1 -50 -4 55 -5 231 -1 243 -5 324 -14 332 -14 11 -406 142
-426 142 -9 0 -12 -17 -10 -62 l3 -61 108 -49 c127 -57 181 -89 201 -120 27
-41 45 -191 52 -434 l7 -239 36 -45 35 -45 -42 40 -42 39 -1 81 c-1 82 -15
264 -17 233 -1 -10 -6 -18 -12 -18 -5 0 -10 -8 -11 -17 0 -15 -1 -15 -8 2 -5
11 -11 73 -15 137 -12 212 -28 237 -213 328 -99 50 -126 79 -59 66 l31 -6 -32
20 c-32 19 -33 21 -33 94 l0 75 58 3 57 3 -60 23 -60 22 47 -5 c26 -2 113 -21
193 -40z m1165 6 c0 -20 -6 -30 -19 -34 -11 -2 -29 -23 -40 -45 -11 -22 -27
-42 -35 -45 -19 -8 -31 -83 -16 -102 18 -22 26 -19 49 18 24 37 28 29 6 -13
-17 -33 -45 -39 -65 -15 -19 22 -4 115 21 133 25 17 24 57 -1 75 -24 17 -16
27 20 27 15 0 35 9 45 20 22 24 35 17 35 -19z m-1831 -14 c6 -8 8 -17 4 -20
-7 -8 -33 11 -33 24 0 13 16 11 29 -4z m1911 -17 c0 -28 -2 -30 -20 -20 -30
16 -25 50 7 50 8 0 13 -12 13 -30z m-458 -68 l-4 -63 -59 -30 c-63 -31 -71
-56 -15 -45 23 4 15 -3 -33 -29 -153 -82 -176 -113 -191 -256 -5 -52 -10 -105
-11 -119 -1 -19 -2 -21 -6 -6 -4 15 -7 16 -14 5 -6 -10 -9 -8 -9 10 0 13 -3
22 -6 18 -4 -3 -10 -82 -14 -174 -8 -156 -8 -151 -5 82 3 259 13 335 50 391
11 18 63 48 161 96 l144 69 1 57 c1 31 1 62 -1 67 -1 7 1 7 7 0 5 -5 7 -38 5
-73z m-1384 10 c18 -24 15 -50 -9 -62 -23 -13 -49 2 -49 26 0 10 7 13 25 8 33
-8 32 9 -2 37 l-28 21 25 -7 c14 -4 31 -14 38 -23z m1774 12 c-32 -22 -29 -46
4 -38 23 6 25 4 22 -16 -7 -53 -70 -51 -76 2 -2 18 5 32 24 47 15 11 32 21 38
21 6 0 0 -7 -12 -16z m-147 -15 c11 -17 -1 -21 -15 -4 -8 9 -8 15 -2 15 6 0
14 -5 17 -11z m125 -159 c-19 -12 -40 -13 -40 -1 0 9 40 20 50 13 2 -2 -2 -7
-10 -12z m-1640 -34 c0 -3 -4 -8 -10 -11 -5 -3 -10 -1 -10 4 0 6 5 11 10 11 6
0 10 -2 10 -4z m257 -129 c-2 -23 -3 -1 -3 48 0 50 1 68 3 42 2 -26 2 -67 0
-90z m1283 123 c0 -5 -5 -10 -11 -10 -5 0 -7 5 -4 10 3 6 8 10 11 10 2 0 4 -4
4 -10z m-273 -137 c-2 -27 -3 -5 -3 47 0 52 1 74 3 48 2 -27 2 -69 0 -95z
m-856 103 c51 -21 90 -56 106 -93 17 -42 33 -248 31 -398 -2 -108 -2 -108 -5
-20 -1 50 -7 151 -13 225 -14 170 -28 204 -112 260 -62 41 -65 50 -7 26z m683
-29 c-71 -49 -92 -96 -103 -237 l-10 -115 4 128 c5 158 17 190 90 229 68 38
77 35 19 -5z m-709 -15 c-3 -3 -11 0 -18 7 -9 10 -8 11 6 5 10 -3 15 -9 12
-12z m83 -64 c25 -40 38 -88 24 -88 -11 0 -22 23 -22 47 0 8 -14 33 -32 55
-25 32 -27 38 -11 30 12 -7 30 -26 41 -44z m605 -8 c-3 -11 -9 -20 -14 -20 -5
0 -9 -11 -9 -24 0 -14 -4 -28 -10 -31 -17 -11 -11 28 10 63 23 37 30 41 23 12z
m-648 -38 c33 -8 35 -10 13 -11 -34 -1 -79 19 -71 32 3 6 8 6 12 0 3 -6 24
-15 46 -21z m-178 -74 c-3 -7 -5 -2 -5 12 0 14 2 19 5 13 2 -7 2 -19 0 -25z
m253 -5 c0 -12 -8 -18 -25 -19 l-25 -2 23 19 c27 23 27 23 27 2z m565 -21 c-5
-5 -45 22 -45 31 0 4 11 0 24 -10 13 -10 23 -19 21 -21z m-655 7 c0 -5 -4 -9
-10 -9 -5 0 -10 7 -10 16 0 8 5 12 10 9 6 -3 10 -10 10 -16z m720 7 c0 -3 -4
-8 -10 -11 -5 -3 -10 -1 -10 4 0 6 5 11 10 11 6 0 10 -2 10 -4z m-893 -48 c-3
-8 -6 -5 -6 6 -1 11 2 17 5 13 3 -3 4 -12 1 -19z m154 -20 c11 -21 11 -22 -4
-9 -10 7 -17 17 -17 22 0 15 9 10 21 -13z m103 -9 c-3 -5 -11 -9 -19 -9 -8 0
-16 4 -19 9 -3 5 5 9 19 9 14 0 22 -4 19 -9z m551 -7 c-3 -3 -11 0 -18 7 -9
10 -8 11 6 5 10 -3 15 -9 12 -12z m251 -14 c-4 -13 -37 -49 -74 -81 -37 -31
-104 -91 -149 -132 -81 -73 -103 -87 -103 -63 0 6 3 8 6 5 9 -8 30 9 185 149
82 75 129 125 129 138 0 10 3 17 6 13 4 -3 3 -16 0 -29z m-946 -110 c64 -56
134 -120 158 -140 23 -21 38 -38 33 -38 -19 0 -321 282 -320 298 0 16 1 16 7
0 4 -9 59 -63 122 -120z m-119 15 c13 -16 12 -17 -3 -4 -10 7 -18 15 -18 17 0
8 8 3 21 -13z m242 -3 c3 -11 1 -18 -4 -14 -5 3 -9 12 -9 20 0 20 7 17 13 -6z
m504 -92 c-2 -24 -4 -7 -4 37 0 44 2 63 4 43 2 -21 2 -57 0 -80z m-108 -184
c-18 -19 -37 -34 -41 -34 -5 0 7 16 27 37 19 20 35 41 36 47 0 6 3 5 6 -2 3
-8 -10 -29 -28 -48z"/>
<path d="M2258 3893 c6 -2 18 -2 25 0 6 3 1 5 -13 5 -14 0 -19 -2 -12 -5z"/>
<path d="M2228 3808 c5 -5 16 -8 23 -6 8 3 3 7 -10 11 -17 4 -21 3 -13 -5z"/>
<path d="M2845 3810 c3 -5 15 -10 26 -10 11 0 17 5 14 10 -3 6 -15 10 -26 10
-11 0 -17 -4 -14 -10z"/>
<path d="M2268 3768 c5 -5 16 -8 23 -6 8 3 3 7 -10 11 -17 4 -21 3 -13 -5z"/>
<path d="M2817 3739 c7 -7 15 -10 18 -7 3 3 -2 9 -12 12 -14 6 -15 5 -6 -5z"/>
<path d="M2056 3723 c-6 -14 -5 -15 5 -6 7 7 10 15 7 18 -3 3 -9 -2 -12 -12z"/>
<path d="M1924 3687 c3 -10 6 -21 6 -23 0 -13 69 -1 90 16 14 11 21 20 15 19
-5 0 -19 -6 -29 -14 -27 -20 -63 -19 -76 3 -11 16 -11 16 -6 -1z"/>
<path d="M3090 3696 c0 -3 9 -10 20 -16 11 -6 20 -8 20 -6 0 3 -9 10 -20 16
-11 6 -20 8 -20 6z"/>
<path d="M3071 3677 c2 -1 13 -9 24 -17 19 -14 19 -14 6 3 -7 9 -18 17 -24 17
-6 0 -8 -1 -6 -3z"/>
<path d="M3155 3670 c-18 -8 -17 -9 7 -9 15 -1 30 4 33 9 7 12 -12 12 -40 0z"/>
<path d="M2990 3445 c0 -5 5 -17 10 -25 5 -8 10 -10 10 -5 0 6 -5 17 -10 25
-5 8 -10 11 -10 5z"/>
<path d="M2747 3302 c18 -33 18 -34 -1 -48 -27 -19 -33 -18 -61 10 -16 16 -23
32 -19 43 5 17 5 16 -6 -1 -10 -15 -9 -23 7 -45 25 -33 66 -39 89 -12 13 15
22 17 35 11 12 -7 21 -5 29 5 7 8 9 15 6 15 -4 0 -1 10 5 23 l12 22 -25 -22
c-31 -29 -34 -29 -64 5 l-26 27 19 -33z"/>
<path d="M2318 3272 c2 -7 10 -11 17 -8 7 2 17 0 23 -6 8 -8 9 -5 6 8 -3 12
-14 19 -28 19 -15 0 -22 -5 -18 -13z"/>
<path d="M2442 3262 c-11 -25 -11 -25 4 -10 9 9 15 21 13 27 -2 6 -10 -2 -17
-17z"/>
<path d="M2433 3193 c9 -2 25 -2 35 0 9 3 1 5 -18 5 -19 0 -27 -2 -17 -5z"/>
<path d="M2588 3153 c12 -2 30 -2 40 0 9 3 -1 5 -23 4 -22 0 -30 -2 -17 -4z"/>
<path d="M3500 2859 c0 -5 5 -7 10 -4 6 3 10 8 10 11 0 2 -4 4 -10 4 -5 0 -10
-5 -10 -11z"/>
<path d="M1980 4161 c0 -5 5 -13 10 -16 6 -3 10 -2 10 4 0 5 -4 13 -10 16 -5
3 -10 2 -10 -4z"/>
<path d="M2006 4084 c-8 -22 1 -31 16 -16 9 9 9 15 1 23 -7 7 -12 5 -17 -7z"/>
<path d="M2335 4200 c-4 -6 -4 -14 -1 -17 3 -4 6 -1 6 7 0 10 3 10 17 -1 14
-12 16 -12 12 0 -7 19 -25 25 -34 11z"/>
<path d="M2752 4188 c5 -15 28 -23 28 -10 0 5 -7 13 -16 16 -10 4 -14 1 -12
-6z"/>
<path d="M3010 4076 c0 -2 8 -10 17 -17 11 -10 14 -10 9 -1 -16 27 10 9 29
-20 11 -17 29 -37 40 -44 19 -13 25 -9 70 37 l50 51 -40 -7 c-53 -9 -55 -11
-55 -51 0 -21 -4 -33 -10 -29 -5 3 -10 19 -10 35 0 16 -4 31 -10 35 -10 6 -90
16 -90 11z m150 -20 c0 -3 -4 -8 -10 -11 -5 -3 -10 -1 -10 4 0 6 5 11 10 11 6
0 10 -2 10 -4z"/>
<path d="M1590 4159 c0 -5 5 -7 10 -4 6 3 10 8 10 11 0 2 -4 4 -10 4 -5 0 -10
-5 -10 -11z"/>
<path d="M1625 4150 c3 -4 14 -10 25 -13 11 -3 18 -2 15 3 -3 4 -14 10 -25 13
-11 3 -18 2 -15 -3z"/>
<path d="M1587 4029 c7 -7 15 -10 18 -7 3 3 -2 9 -12 12 -14 6 -15 5 -6 -5z"/>
<path d="M1660 4001 c0 -6 4 -13 10 -16 6 -3 7 1 4 9 -7 18 -14 21 -14 7z"/>
<path d="M3480 4079 c0 -10 50 -18 56 -8 3 5 2 9 -3 10 -4 0 -18 2 -30 3 -13
2 -23 -1 -23 -5z"/>
<path d="M3417 3904 c-11 -11 3 -24 27 -24 24 0 74 -43 119 -100 15 -19 27
-29 27 -22 0 19 -133 152 -151 152 -9 0 -19 -3 -22 -6z"/>
<path d="M1060 3210 c-12 -7 -12 -12 -2 -22 14 -14 35 1 24 19 -5 8 -13 9 -22
3z"/>
<path d="M1368 3193 c6 -2 18 -2 25 0 6 3 1 5 -13 5 -14 0 -19 -2 -12 -5z"/>
<path d="M3735 3200 c-16 -7 -17 -9 -3 -9 9 -1 20 4 23 9 7 11 7 11 -20 0z"/>
<path d="M3728 2873 c6 -2 18 -2 25 0 6 3 1 5 -13 5 -14 0 -19 -2 -12 -5z"/>
<path d="M4040 2869 c0 -5 5 -7 10 -4 6 3 10 8 10 11 0 2 -4 4 -10 4 -5 0 -10
-5 -10 -11z"/>
<path d="M1390 2612 c0 -10 72 -34 79 -27 2 3 -12 12 -32 20 -42 17 -47 18
-47 7z"/>
<path d="M1693 2134 c-13 -15 -28 -22 -35 -18 -8 5 -9 2 -3 -12 13 -33 16 -58
7 -72 -8 -11 -13 -12 -30 -1 -16 10 -19 20 -15 41 6 30 -11 39 -21 12 -5 -12
-14 -15 -38 -10 -40 8 -34 2 54 -50 67 -40 97 -49 70 -22 -7 7 -12 19 -12 28
1 12 3 12 14 -3 13 -17 15 -16 20 10 9 49 18 123 15 123 -2 0 -14 -12 -26 -26z"/>
<path d="M3530 2069 c0 -5 5 -7 10 -4 6 3 10 3 10 0 0 -3 -20 -15 -45 -26 -24
-11 -47 -24 -50 -29 -10 -16 2 -12 60 21 57 32 69 49 35 49 -11 0 -20 -5 -20
-11z"/>
<path d="M3216 1815 c-21 -32 -20 -35 8 -35 30 0 40 13 31 40 -8 27 -19 25
-39 -5z"/>
<path d="M1432 1698 c-7 -49 -8 -76 -1 -83 15 -15 27 11 35 72 13 105 -19 115
-34 11z"/>
<path d="M3135 1619 c-4 -6 -5 -12 -2 -15 2 -3 7 2 10 11 7 17 1 20 -8 4z"/>
<path d="M3090 1610 c-8 -5 -12 -11 -9 -14 2 -3 11 -1 19 4 8 5 12 11 9 14 -2
3 -11 1 -19 -4z"/>
<path d="M3220 1599 c0 -6 -7 -8 -16 -5 -10 4 -14 1 -12 -6 3 -7 13 -15 24
-17 10 -2 16 0 12 4 -4 5 -3 14 3 22 9 9 8 13 0 13 -6 0 -11 -5 -11 -11z"/>
<path d="M3006 1582 c-2 -4 2 -15 9 -25 11 -15 17 -17 34 -7 19 10 20 13 7 25
-16 16 -42 20 -50 7z"/>
<path d="M3615 1556 c-9 -13 -20 -38 -25 -55 l-9 -32 23 22 c13 13 22 29 19
36 -10 26 32 13 52 -16 11 -17 21 -28 23 -26 7 6 -48 95 -58 95 -5 0 -17 -11
-25 -24z"/>
<path d="M3176 1474 c-19 -19 -20 -25 -3 -48 18 -24 51 -17 55 12 3 23 -13 52
-29 52 -4 0 -15 -7 -23 -16z"/>
<path d="M3055 1449 c-8 -26 16 -54 39 -46 10 4 16 18 16 37 0 25 -4 30 -24
30 -16 0 -27 -7 -31 -21z"/>
<path d="M3170 1371 c5 -11 15 -23 21 -27 6 -3 3 5 -6 20 -20 30 -30 35 -15 7z"/>
<path d="M3173 1283 c9 -2 23 -2 30 0 6 3 -1 5 -18 5 -16 0 -22 -2 -12 -5z"/>
<path d="M2738 1348 c5 -5 16 -8 23 -6 8 3 3 7 -10 11 -17 4 -21 3 -13 -5z"/>
<path d="M3810 4251 c0 -5 6 -11 14 -14 9 -4 12 -14 9 -25 -2 -11 1 -23 8 -27
8 -6 10 -4 5 6 -4 8 1 4 12 -8 19 -21 42 -31 42 -17 0 3 -17 25 -37 50 -36 42
-53 54 -53 35z"/>
<path d="M1291 4234 c0 -11 3 -14 6 -6 3 7 2 16 -1 19 -3 4 -6 -2 -5 -13z"/>
<path d="M1326 4234 c-11 -30 -6 -37 14 -19 11 10 17 22 14 26 -8 14 -21 11
-28 -7z"/>
<path d="M3760 4243 c8 -3 18 -11 22 -17 5 -7 8 -4 8 7 0 11 -7 17 -22 16 -16
0 -18 -2 -8 -6z"/>
<path d="M3700 4235 c0 -7 30 -13 34 -7 3 4 -4 9 -15 9 -10 1 -19 0 -19 -2z"/>
<path d="M1359 4210 l-24 -21 35 17 c43 21 47 24 28 24 -9 0 -26 -9 -39 -20z"/>
<path d="M1210 4205 c-7 -9 -11 -17 -9 -20 3 -2 10 5 17 15 14 24 10 26 -8 5z"/>
<path d="M1240 4191 c-23 -33 -17 -43 20 -29 18 7 21 11 11 17 -9 6 -10 11 -2
15 6 4 11 11 11 17 0 18 -19 9 -40 -20z"/>
<path d="M3740 4218 c3 -3 20 -13 37 -22 28 -14 32 -14 27 -1 -4 8 -12 15 -19
15 -7 0 -22 3 -32 7 -10 3 -16 4 -13 1z"/>
<path d="M3915 4188 c9 -16 24 -28 33 -28 8 0 13 1 11 3 -2 1 -17 13 -33 27
l-29 25 18 -27z"/>
<path d="M1178 4163 c7 -3 16 -2 19 1 4 3 -2 6 -13 5 -11 0 -14 -3 -6 -6z"/>
<path d="M1067 4083 c-25 -33 -32 -50 -24 -55 8 -5 6 -8 -6 -8 -31 0 -104
-152 -92 -191 6 -17 9 -18 34 -5 15 8 33 22 40 30 11 13 10 17 -4 23 -13 4
-25 -2 -42 -21 -25 -29 -30 -27 -12 5 6 11 12 30 15 42 2 12 8 23 14 25 6 2 7
8 4 13 -3 6 2 21 11 35 12 19 23 25 41 21 27 -5 28 -3 13 25 -9 17 -5 28 21
64 17 24 29 44 27 44 -3 0 -21 -21 -40 -47z"/>
<path d="M1091 4079 c-11 -19 -11 -21 4 -15 9 3 19 6 21 6 2 0 4 7 4 15 0 21
-13 19 -29 -6z"/>
<path d="M1150 4090 c0 -5 5 -10 10 -10 6 0 10 5 10 10 0 6 -4 10 -10 10 -5 0
-10 -4 -10 -10z"/>
<path d="M3950 4092 c0 -5 7 -13 16 -16 10 -4 14 -1 12 6 -5 15 -28 23 -28 10z"/>
<path d="M1093 4035 c-3 -9 -3 -18 0 -21 9 -9 27 6 27 22 0 19 -19 18 -27 -1z"/>
<path d="M4050 4025 c0 -19 5 -25 22 -25 12 0 30 -7 40 -17 10 -9 18 -11 18
-5 0 14 -41 43 -52 36 -4 -3 -8 4 -8 15 0 12 -4 21 -10 21 -5 0 -10 -11 -10
-25z"/>
<path d="M1015 3970 c-15 -16 -15 -22 -5 -35 10 -12 10 -15 -3 -15 -9 0 -19
-5 -23 -11 -9 -16 33 -1 57 19 22 19 24 35 6 51 -11 8 -18 6 -32 -9z m29 -15
c-4 -8 -10 -15 -15 -15 -5 0 -9 7 -9 15 0 8 7 15 15 15 9 0 12 -6 9 -15z"/>
<path d="M4064 3966 c-8 -21 3 -36 27 -36 15 0 20 6 17 22 -4 27 -35 37 -44
14z"/>
<path d="M4130 3945 c0 -8 -10 -20 -22 -24 -22 -9 -22 -9 -3 -16 38 -13 50
-22 53 -44 4 -27 -14 -28 -21 -1 -3 11 -12 20 -21 20 -30 0 -16 -29 30 -60
l46 -30 -7 32 c-17 86 -55 171 -55 123z m15 -25 c3 -5 1 -10 -4 -10 -6 0 -11
5 -11 10 0 6 2 10 4 10 3 0 8 -4 11 -10z"/>
<path d="M4402 3297 c-29 -30 -29 -82 -2 -97 27 -14 128 -21 136 -9 3 5 10 6
16 3 8 -5 9 4 5 27 -9 44 -67 99 -105 99 -17 0 -37 -9 -50 -23z"/>
<path d="M4724 3019 c-3 -6 -2 -15 3 -20 5 -5 9 -1 9 11 0 23 -2 24 -12 9z"/>
<path d="M4427 2830 c5 -3 20 -11 35 -18 21 -9 29 -8 38 4 7 8 11 14 9 15 -31
4 -87 4 -82 -1z"/>
<path d="M4389 2778 c-34 -47 -33 -89 1 -68 13 8 12 12 -5 24 -20 15 -20 15 2
13 12 0 20 -4 17 -8 -2 -4 0 -11 6 -14 6 -4 2 -14 -11 -24 -26 -21 -35 -53
-13 -44 8 3 14 0 14 -6 0 -6 -4 -11 -8 -11 -5 0 -9 -7 -9 -16 0 -14 2 -14 14
2 8 11 16 30 19 44 5 25 8 30 44 85 11 17 20 33 20 36 0 13 -33 20 -44 9 -13
-13 -29 -13 -21 0 15 24 -6 7 -26 -22z m18 -102 c0 -8 -6 -12 -15 -9 -11 5
-11 7 0 14 7 5 13 9 14 9 0 0 1 -6 1 -14z"/>
<path d="M4753 2692 c2 -27 4 -29 17 -17 12 13 12 17 -3 32 -15 16 -16 15 -14
-15z"/>
<path d="M4780 2710 c0 -5 5 -10 11 -10 5 0 7 5 4 10 -3 6 -8 10 -11 10 -2 0
-4 -4 -4 -10z"/>
<path d="M4695 2610 c-3 -5 -1 -10 4 -10 6 0 11 5 11 10 0 6 -2 10 -4 10 -3 0
-8 -4 -11 -10z"/>
<path d="M4872 2495 c4 -4 3 -16 -3 -26 -5 -11 -7 -19 -5 -19 3 0 10 9 16 19
7 15 7 22 -2 27 -7 4 -10 4 -6 -1z"/>
<path d="M4337 2255 c-4 -8 -3 -16 1 -19 4 -3 9 4 9 15 2 23 -3 25 -10 4z"/>
<path d="M4333 2175 c0 -8 4 -15 9 -15 4 0 8 7 8 15 0 8 -4 15 -8 15 -5 0 -9
-7 -9 -15z"/>
<path d="M605 3287 c-32 -32 -54 -81 -42 -93 11 -11 114 -15 140 -5 56 22 56
95 0 120 -40 18 -63 13 -98 -22z"/>
<path d="M375 3100 c3 -5 8 -10 11 -10 2 0 4 5 4 10 0 6 -5 10 -11 10 -5 0 -7
-4 -4 -10z"/>
<path d="M630 2803 c0 -17 55 -93 68 -94 10 0 27 -2 39 -3 17 -2 20 0 12 10
-5 7 -24 11 -41 9 -34 -5 -34 -3 1 15 19 10 22 9 16 -1 -5 -8 -4 -10 3 -5 17
10 15 29 -2 23 -15 -6 -59 29 -52 41 2 4 -7 8 -20 8 -13 1 -24 0 -24 -3z"/>
<path d="M302 2425 c-20 -11 -21 -14 -7 -25 8 -7 16 -10 16 -6 1 3 2 9 3 14 1
4 5 13 9 20 9 14 9 14 -21 -3z"/>
<path d="M773 2179 c-2 -23 3 -25 10 -4 4 8 3 16 -1 19 -4 3 -9 -4 -9 -15z"/>
<path d="M4789 3463 c-13 -16 -12 -17 4 -4 9 7 17 15 17 17 0 8 -8 3 -21 -13z"/>
<path d="M444 1953 c0 -15 4 -19 11 -13 6 5 17 5 25 0 9 -5 19 -5 26 1 7 5 16
8 20 7 5 -2 9 2 9 7 0 6 -6 9 -13 7 -8 -2 -12 0 -9 5 3 5 -11 8 -32 8 -32 0
-37 -3 -37 -22z m60 -4 c-3 -5 -10 -7 -15 -3 -5 3 -7 10 -3 15 3 5 10 7 15 3
5 -3 7 -10 3 -15z"/>
<path d="M4590 1995 c-8 -9 -8 -15 0 -20 6 -4 9 -1 8 7 -2 7 5 13 14 13 24 0
31 11 8 12 -10 1 -24 -4 -30 -12z"/>
<path d="M57 1763 c-7 -7 11 -33 23 -33 3 0 7 6 7 14 0 8 -6 12 -15 8 -10 -3
-13 -1 -8 6 8 13 3 16 -7 5z"/>
<path d="M50 1615 c7 -9 15 -13 17 -11 7 7 -7 26 -19 26 -6 0 -6 -6 2 -15z"/>
<path d="M5030 1711 c0 -5 7 -12 16 -15 14 -5 15 -4 4 9 -14 17 -20 19 -20 6z"/>
<path d="M4965 1460 c-3 -6 1 -7 9 -4 18 7 21 14 7 14 -6 0 -13 -4 -16 -10z"/>
<path d="M615 1251 c-3 -5 -2 -12 3 -15 5 -3 9 1 9 9 0 17 -3 19 -12 6z"/>
<path d="M654 1228 c-13 -16 -14 -19 -2 -10 11 9 18 10 23 2 7 -11 25 -4 25
10 0 5 -7 6 -17 3 -11 -4 -14 -3 -9 5 12 20 0 13 -20 -10z"/>
<path d="M413 1109 c-2 -23 3 -25 10 -4 4 8 3 16 -1 19 -4 3 -9 -4 -9 -15z"/>
<path d="M295 1301 c-3 -5 -2 -12 3 -15 5 -3 9 1 9 9 0 17 -3 19 -12 6z"/>
<path d="M4434 1229 c-6 -11 34 -31 47 -24 5 4 8 12 6 18 -4 12 -46 17 -53 6z"/>
<path d="M40 1066 c0 -2 7 -9 15 -16 13 -11 14 -10 9 4 -5 14 -24 23 -24 12z"/>
<path d="M770 896 c0 -2 7 -9 15 -16 13 -11 14 -10 9 4 -5 14 -24 23 -24 12z"/>
<path d="M545 470 c-4 -6 1 -7 11 -3 12 4 15 3 10 -6 -9 -13 10 -41 28 -41 6
0 5 4 -3 9 -10 6 -10 10 -1 16 8 5 6 11 -7 21 -22 16 -30 17 -38 4z"/>
<path d="M4539 473 c-13 -16 -12 -17 4 -4 9 7 17 15 17 17 0 8 -8 3 -21 -13z"/>
<path d="M3715 278 c-41 -13 -49 -15 -58 -17 -4 0 -20 -7 -36 -15 -16 -9 -31
-13 -35 -11 -3 3 -4 2 -1 -2 5 -6 -100 -54 -122 -56 -7 0 -13 -5 -13 -10 0 -6
-3 -8 -6 -4 -3 3 -34 -7 -69 -23 -35 -16 -66 -26 -69 -23 -6 7 -158 -75 -168
-90 -16 -24 -5 -27 113 -27 110 0 122 2 137 21 l17 20 22 -20 c19 -18 35 -20
153 -20 81 0 128 3 125 9 -4 6 -1 10 5 10 6 0 9 4 5 9 -3 5 -1 12 5 16 6 4 8
11 4 16 -3 6 2 9 11 7 10 -2 20 3 22 10 4 10 -3 10 -30 -2 -31 -12 -35 -12
-30 0 3 8 14 14 24 14 10 0 20 5 20 10 1 6 2 15 3 22 0 6 8 13 16 15 12 4 12
3 2 -5 -11 -8 -11 -10 1 -15 12 -4 14 0 11 18 -2 13 1 27 6 30 8 5 7 11 -1 21
-7 9 -8 14 -1 14 6 0 9 8 7 18 -2 9 -4 25 -4 34 -1 25 -31 37 -66 26z m0 -228
c-9 -14 -52 -17 -52 -4 0 7 12 12 28 12 16 -1 26 -4 24 -8z"/>
<path d="M1311 137 c-8 -10 -7 -17 2 -28 6 -8 11 -12 9 -10 -1 2 6 13 15 23
16 18 16 18 -2 12 -13 -5 -16 -4 -11 4 10 16 1 15 -13 -1z"/>
<path d="M1397 54 c-11 -11 3 -24 18 -18 8 4 12 10 9 15 -6 11 -18 12 -27 3z"/>
</g>
</svg>
